<svg width="40" height="31" viewBox="0 0 40 31" fill="none" xmlns="http://www.w3.org/2000/svg">
<path d="M33.8822 2.59676C31.2933 1.38442 28.5247 0.502145 25.6311 0C25.2748 0.642933 24.8608 1.50956 24.5733 2.19786C21.4969 1.73482 18.4486 1.73482 15.4285 2.19786C15.1425 1.50956 14.7176 0.644497 14.3582 0C11.4615 0.502145 8.68973 1.38598 6.09923 2.60302C0.877615 10.5044 -0.53794 18.2086 0.169837 25.8049C3.63373 28.3954 6.98981 29.9676 10.2912 30.9969C11.1068 29.8737 11.8333 28.6801 12.4583 27.4224C11.2662 26.9688 10.124 26.4087 9.0444 25.7596C9.33032 25.5468 9.60999 25.3247 9.88185 25.0963C16.4628 28.178 23.614 28.178 30.1168 25.0963C30.3902 25.3247 30.6699 25.5468 30.9542 25.7596C29.8715 26.4119 28.7262 26.9719 27.5341 27.4255C28.1606 28.6801 28.884 29.8768 29.7012 31C33.0041 29.9707 36.3649 28.397 39.8288 25.8049C40.66 16.9994 38.4101 9.36555 33.8822 2.59676ZM13.3536 21.1323C11.3787 21.1323 9.75842 19.2864 9.75842 17.0369C9.75842 14.7875 11.3443 12.9384 13.3536 12.9384C15.3628 12.9384 16.9846 14.7843 16.9487 17.0369C16.9518 19.2864 15.3628 21.1323 13.3536 21.1323ZM26.642 21.1323C24.6671 21.1323 23.0468 19.2864 23.0468 17.0369C23.0468 14.7875 24.6327 12.9384 26.642 12.9384C28.6512 12.9384 30.273 14.7843 30.2371 17.0369C30.2371 19.2864 28.6512 21.1323 26.642 21.1323Z" fill="#FF7922"/>
</svg>
