<svg width="24" height="20" viewBox="0 0 24 20" fill="none" xmlns="http://www.w3.org/2000/svg">
<path d="M15.8546 0H17.4082C18.4007 0.127233 19.3931 0.238914 20.196 0.942934C20.4661 1.17902 20.8181 1.07865 21.139 0.991C21.6833 0.842562 22.1936 0.609302 22.7039 0.376043C22.9499 0.262947 23.2086 0.210641 23.4179 0.435418C23.6186 0.6503 23.5875 0.906178 23.473 1.15357C23.1719 1.79822 22.7661 2.3538 22.2388 2.66199C22.7322 2.55455 23.2722 1.91132 23.9692 2.48386C24.0682 2.89383 23.924 3.25291 23.6045 3.47486C22.2459 4.42345 22.007 5.78908 21.8077 7.32859C21.1757 12.1974 18.6382 15.8786 14.3038 18.2819C13.0074 19.0015 11.6107 19.4623 10.0994 19.485C9.89162 19.4878 9.67109 19.4539 9.50144 19.6249H5.68871C5.36073 19.3789 4.96348 19.4581 4.60582 19.444C3.08044 19.3832 1.77984 18.706 0.472174 18.0345C0.212054 17.9002 0.0240328 17.6995 0 17.3884C0.261534 16.9007 0.739362 17.0661 1.13096 17.0576C2.70581 17.0251 4.18171 16.6279 5.58127 15.9295C5.74526 15.8475 5.93045 15.7881 6.0393 15.6044C5.98417 15.3428 5.73253 15.3556 5.55158 15.2877C4.34146 14.841 3.41266 14.0535 2.75105 12.9664C2.2096 12.0758 2.48528 11.6234 3.51586 11.6206C3.50031 11.6177 3.51162 11.6093 3.49748 11.6064C1.97635 10.8671 1.04755 9.67533 0.661609 8.05947C0.564064 7.6495 0.442486 7.2056 0.793083 6.87056C1.1564 6.5242 1.54375 6.83946 1.92545 6.92145C0.593752 5.29146 0.158334 3.49607 0.948589 1.48721C1.26667 0.678574 1.73319 0.63899 2.34532 1.27515C4.60582 3.62613 7.32577 5.13454 10.5999 5.57278C11.2912 5.66609 11.4311 5.56147 11.4128 4.89138C11.3703 3.30663 12.0517 2.08803 13.1573 0.995241C13.9334 0.227605 14.9046 0.190849 15.8546 0V0Z" fill="#CECECE"/>
</svg>
