<svg width="117" height="111" viewBox="0 0 117 111" fill="none" xmlns="http://www.w3.org/2000/svg">
<path d="M1 29V110.771" stroke="#FF7722" stroke-miterlimit="10"/>
<path d="M4.00391 29V110.771" stroke="#FF7722" stroke-miterlimit="10"/>
<path d="M7.00391 29V110.771" stroke="#FF7722" stroke-miterlimit="10"/>
<path d="M10.0078 29V110.771" stroke="#FF7722" stroke-miterlimit="10"/>
<path d="M13.0117 29V110.771" stroke="#FF7722" stroke-miterlimit="10"/>
<path d="M16.0156 29V110.771" stroke="#FF7722" stroke-miterlimit="10"/>
<path d="M19.0156 29V110.771" stroke="#FF7722" stroke-miterlimit="10"/>
<path d="M22.0195 29V110.771" stroke="#FF7722" stroke-miterlimit="10"/>
<path d="M25.0234 29V110.771" stroke="#FF7722" stroke-miterlimit="10"/>
<path d="M28.0215 29V110.771" stroke="#FF7722" stroke-miterlimit="10"/>
<path d="M31.0254 29V110.771" stroke="#FF7722" stroke-miterlimit="10"/>
<path d="M34.0293 29V110.771" stroke="#FF7722" stroke-miterlimit="10"/>
<path d="M37.0352 29V110.771" stroke="#FF7722" stroke-miterlimit="10"/>
<path d="M40.0352 29V110.771" stroke="#FF7722" stroke-miterlimit="10"/>
<path d="M43.0391 29V110.771" stroke="#FF7722" stroke-miterlimit="10"/>
<path d="M46.043 29V110.771" stroke="#FF7722" stroke-miterlimit="10"/>
<path d="M49.0469 29V110.771" stroke="#FF7722" stroke-miterlimit="10"/>
<path d="M52.0449 29V110.771" stroke="#FF7722" stroke-miterlimit="10"/>
<path d="M55.0488 29V110.771" stroke="#FF7722" stroke-miterlimit="10"/>
<path d="M58.0527 29V110.771" stroke="#FF7722" stroke-miterlimit="10"/>
<path d="M61.0527 29V110.771" stroke="#FF7722" stroke-miterlimit="10"/>
<path d="M64.0566 29V110.771" stroke="#FF7722" stroke-miterlimit="10"/>
<path d="M67.0605 29V110.771" stroke="#FF7722" stroke-miterlimit="10"/>
<path d="M70.0645 29V110.771" stroke="#FF7722" stroke-miterlimit="10"/>
<path d="M73.0645 29V110.771" stroke="#FF7722" stroke-miterlimit="10"/>
<path d="M76.0684 29V110.771" stroke="#FF7722" stroke-miterlimit="10"/>
<path d="M79.0723 29V110.771" stroke="#FF7722" stroke-miterlimit="10"/>
<path d="M82.0723 29V110.771" stroke="#FF7722" stroke-miterlimit="10"/>
<path d="M85.0742 29V110.771" stroke="#FF7722" stroke-miterlimit="10"/>
<path fill-rule="evenodd" clip-rule="evenodd" d="M27.1465 81.7709V0H29.1465V81.7709H27.1465ZM33.1542 81.7709V0H35.1542V81.7709H33.1542ZM39.1588 0V81.7709H41.1588V0H39.1588ZM45.1618 81.7709V0H47.1618V81.7709H45.1618ZM51.1695 0V81.7709H53.1695V0H51.1695ZM57.1726 81.7709V0H59.1726V81.7709H57.1726ZM63.1818 0V81.7709H65.1818V0H63.1818ZM69.1849 81.7709V0H71.1849V81.7709H69.1849ZM75.1925 0V81.7709H77.1925V0H75.1925ZM81.1956 81.7709V0H83.1956V81.7709H81.1956ZM87.2048 0V81.7709H89.2048V0H87.2048ZM93.2079 81.7709V0H95.2079V81.7709H93.2079ZM99.2109 0V81.7709H101.211V0H99.2109ZM105.219 81.7709V0H107.219V81.7709H105.219ZM111.222 0V81.7709H113.222V0H111.222Z" fill="url(#paint0_linear_334_113197)"/>
<circle cx="112" cy="67" r="5" fill="#FF7722"/>
<circle cx="94.5" cy="97.5" r="3.5" fill="#FDCDAD"/>
<defs>
<linearGradient id="paint0_linear_334_113197" x1="70.1841" y1="0" x2="70.1841" y2="81.7709" gradientUnits="userSpaceOnUse">
<stop stop-color="#FFC8A4"/>
<stop offset="1" stop-color="#F2E1D6"/>
</linearGradient>
</defs>
</svg>
