<svg width="156" height="108" viewBox="0 0 156 108" fill="none" xmlns="http://www.w3.org/2000/svg">
<path d="M0 53.9987C0 53.5559 0.00857544 53.0988 0.0257263 52.6387C0.125824 49.8151 0.55481 46.9714 1.29265 44.191C1.29265 44.1651 1.29552 44.1421 1.30409 44.122C1.32411 44.053 1.34985 43.9782 1.37273 43.9063C2.17349 40.9821 3.32889 38.0982 4.80458 35.3321C4.95615 35.0331 5.11058 34.7312 5.27359 34.4322C5.29076 34.4005 5.31363 34.3746 5.34222 34.3516C5.40515 34.2424 5.46519 34.1331 5.52811 34.0239C5.53383 33.9836 5.54527 33.9491 5.56529 33.9175C5.63965 33.7967 5.73975 33.6414 5.85701 33.4689C7.5815 30.5735 9.68636 27.7672 12.1087 25.1247C12.1201 25.0816 12.143 25.0413 12.1773 25.0068C12.2974 24.8832 12.4461 24.7366 12.6149 24.5842C12.8093 24.3771 13.0038 24.173 13.1954 23.9746L13.3127 23.8366C13.367 23.7705 13.4242 23.7043 13.4814 23.6382C13.5157 23.5979 13.5586 23.5692 13.6101 23.5548C15.6864 21.4558 17.9943 19.4431 20.4766 17.5684C20.4967 17.5253 20.5253 17.4879 20.5653 17.4591C20.5825 17.4476 20.7397 17.3326 21.04 17.1486C23.6254 15.2365 26.428 13.4394 29.3794 11.8062C29.4051 11.7689 29.4366 11.7372 29.4766 11.7171C29.4995 11.7056 29.6397 11.6337 29.8627 11.5388L30.2259 11.3347C30.3718 11.2484 30.5176 11.1622 30.6663 11.0759C30.7064 11.0529 30.755 11.0385 30.8036 11.0385C33.0944 9.83089 35.4967 8.70089 37.9476 7.68302C37.9762 7.65427 38.0076 7.63127 38.0448 7.61402C38.0648 7.60539 38.1935 7.55651 38.4166 7.49038C41.0648 6.40638 43.8303 5.42302 46.6387 4.56618C46.6644 4.54605 46.6902 4.53167 46.7188 4.52017C46.7617 4.50579 46.9304 4.45404 47.1792 4.40228C49.9933 3.55981 52.9161 2.82661 55.8646 2.22279C55.8875 2.21129 55.9132 2.19978 55.9418 2.19403C55.9676 2.18828 56.0391 2.17678 56.1363 2.16816C58.999 1.58734 61.9504 1.11866 64.9075 0.77075C64.9218 0.764999 64.9418 0.759248 64.9705 0.756373C64.9847 0.756373 65.0162 0.753498 65.0419 0.756373C68.0591 0.405584 71.1249 0.175558 74.1363 0.0749215C74.1563 0.0749215 74.1735 0.0749215 74.1792 0.0749215C75.4662 0.0317916 76.7531 0.00878906 78 0.00878906C79.2469 0.00878906 80.5338 0.0317916 81.8065 0.0749215C81.8294 0.0749215 81.8522 0.0749215 81.8551 0.0749215C84.878 0.178433 87.9409 0.408459 90.9438 0.756373C90.9895 0.756373 91.021 0.756373 91.0381 0.756373C91.061 0.756373 91.081 0.764999 91.0982 0.77075C94.0524 1.11866 97.0038 1.58734 99.8494 2.16528C99.9638 2.17678 100.035 2.19116 100.064 2.19691C100.09 2.20266 100.115 2.21129 100.141 2.22566C103.09 2.83236 106.015 3.56556 108.821 4.40516C109.121 4.46841 109.278 4.52305 109.284 4.52592C109.313 4.53455 109.338 4.54892 109.361 4.56905C112.167 5.4259 114.929 6.40926 117.563 7.4875C117.804 7.56226 117.935 7.61114 117.958 7.61977C117.995 7.63414 118.027 7.65715 118.055 7.68878C120.503 8.70664 122.903 9.83377 125.194 11.0443C125.254 11.0529 125.288 11.0558 125.331 11.0817C125.485 11.1708 125.637 11.2628 125.791 11.3519L126.117 11.536C126.357 11.6395 126.5 11.7142 126.523 11.7257C126.563 11.7487 126.598 11.7775 126.623 11.8177C129.572 13.448 132.375 15.2451 134.946 17.1486C135.232 17.324 135.403 17.4447 135.429 17.462C135.466 17.4908 135.495 17.5281 135.515 17.5713C137.997 19.4488 140.308 21.4644 142.387 23.5634C142.436 23.5778 142.481 23.6066 142.513 23.6468C142.57 23.7129 142.627 23.7791 142.682 23.8481L142.793 23.9832C142.985 24.1788 143.171 24.38 143.351 24.5698C143.534 24.7394 143.688 24.8918 143.817 25.0212C143.851 25.0557 143.874 25.096 143.886 25.142C146.308 27.7815 148.41 30.5878 150.129 33.4747C150.252 33.6558 150.352 33.8111 150.426 33.9318C150.446 33.9635 150.458 33.998 150.463 34.0382L150.523 34.1389C150.552 34.1619 150.575 34.1878 150.592 34.2165C150.778 34.5443 150.967 34.9008 151.167 35.3005C152.648 38.0694 153.809 40.9534 154.61 43.869C154.642 43.9638 154.67 44.0559 154.696 44.1392C154.704 44.1651 154.707 44.1939 154.707 44.2197C155.448 46.9801 155.874 49.818 155.974 52.6416C155.991 53.1102 156 53.5674 156 54.0016C156 54.1942 155.994 54.3869 155.991 54.5767L155.986 54.7952C155.989 54.9993 155.986 55.1143 155.986 55.1316L155.98 55.1604C155.877 58.536 155.316 61.9116 154.316 65.1866C154.296 65.27 154.276 65.3505 154.253 65.4281C154.244 65.4598 154.23 65.4828 154.218 65.4971C153.909 66.4776 153.561 67.4581 153.18 68.4098C153.18 68.4501 153.169 68.4846 153.152 68.5191L153.092 68.6312C152.185 70.8567 151.061 73.065 149.748 75.1841C149.608 75.4573 149.505 75.6211 149.485 75.647C149.465 75.6787 149.437 75.7045 149.405 75.7247C147.698 78.4073 145.656 81.0124 143.342 83.4593C143.251 83.5743 143.176 83.6634 143.113 83.7353C143.099 83.7583 143.082 83.7813 143.062 83.8014L143.025 83.836C142.973 83.8935 142.939 83.9308 142.936 83.9337C142.916 83.9538 142.896 83.9682 142.873 83.9826C142.77 84.0803 142.667 84.1781 142.567 84.2701C140.417 86.4611 138.003 88.5687 135.4 90.5239C135.109 90.7885 134.923 90.9236 134.92 90.9236C134.883 90.9524 134.837 90.9696 134.791 90.9754C132.343 92.7753 129.692 94.4775 126.921 96.0244C126.518 96.2976 126.266 96.4241 126.263 96.427C126.229 96.4442 126.192 96.4529 126.152 96.4557C124.742 97.2234 123.269 97.971 121.776 98.6726C121.747 98.7071 121.71 98.7359 121.67 98.7531C121.547 98.8049 121.421 98.8566 121.296 98.9055L121.11 98.9803C120.057 99.4662 118.97 99.9406 117.892 100.386C117.715 100.484 117.601 100.536 117.578 100.544C117.543 100.559 117.509 100.565 117.472 100.565H117.455C114.42 101.801 111.249 102.902 108.043 103.831C107.763 103.943 107.591 103.98 107.568 103.983C107.54 103.989 107.511 103.992 107.488 103.989C104.488 104.84 101.377 105.568 98.2622 106.148C98.225 106.16 98.1907 106.171 98.1535 106.18C98.122 106.189 98.0906 106.192 98.0562 106.189C94.8275 106.784 91.5186 107.238 88.2355 107.534C88.1725 107.549 88.1296 107.549 88.1153 107.549H88.0982C84.7607 107.848 81.3661 108 78 108H77.9914C74.6254 108 71.2221 107.848 67.8961 107.549H67.8904C67.856 107.552 67.7989 107.549 67.7588 107.537C64.4643 107.238 61.1582 106.784 57.938 106.189C57.9037 106.194 57.8723 106.189 57.8408 106.18C57.8065 106.171 57.7722 106.16 57.7521 106.154C54.6177 105.571 51.5091 104.843 48.5062 103.992H48.4833C48.4633 103.992 48.4461 103.992 48.4261 103.986C48.4061 103.983 48.2345 103.943 47.9714 103.84C44.7512 102.905 41.5767 101.807 38.5396 100.567H38.5281C38.4909 100.567 38.4566 100.562 38.4223 100.547C38.4023 100.539 38.2879 100.487 38.1277 100.401C36.6921 99.8084 35.2622 99.1729 33.8837 98.5145L33.6778 98.4282C33.5519 98.3765 33.4261 98.3218 33.3003 98.2672C33.2574 98.2499 33.2202 98.2212 33.1916 98.1838C32.0334 97.6174 30.9066 97.0394 29.8456 96.4615C29.8084 96.4615 29.7712 96.45 29.734 96.4327C29.7226 96.427 29.4795 96.3034 29.0991 96.0474C26.3108 94.489 23.6539 92.7868 21.203 90.984C21.1573 90.9782 21.1144 90.961 21.0801 90.9351C21.0801 90.9351 20.9028 90.8086 20.6196 90.5498C17.9971 88.5774 15.572 86.4611 13.4214 84.2673C13.3127 84.1666 13.2011 84.0631 13.1125 83.9768C13.101 83.9711 13.0839 83.9596 13.0524 83.928L13.0009 83.8762L12.9809 83.8561C12.9609 83.836 12.9466 83.8158 12.9495 83.8158C12.8837 83.7411 12.7865 83.6289 12.6778 83.4909C10.3499 81.0268 8.30219 78.416 6.58913 75.7275C6.55766 75.7074 6.53192 75.6815 6.5119 75.6528C6.5119 75.6528 6.4118 75.5004 6.26309 75.2186C4.94183 73.0822 3.80934 70.8682 2.90848 68.6485L2.84555 68.5249C2.8284 68.4903 2.81982 68.4558 2.81696 68.4156C2.4366 67.4639 2.08484 66.4805 1.77597 65.4943L1.74451 65.4339C1.72736 65.3678 1.71019 65.2987 1.69304 65.2355C0.683502 61.9404 0.120117 58.5532 0.0142975 55.169L0.00857544 55.1373C0.00857544 55.1373 0.00285339 55.0137 0.00857544 54.8153L0.00286865 54.5968C-0.00285339 54.4013 -0.00572205 54.2057 -0.00572205 54.0102L0 53.9987ZM1.48712 59.8529C1.18111 59.0162 0.920868 58.1651 0.709244 57.3082C0.837936 58.7344 1.04958 60.1634 1.34128 61.5781C1.35844 61.0088 1.40704 60.4308 1.48712 59.8529ZM66.0429 103.621C66.2602 104.524 66.5205 105.269 66.8208 105.841C70.4442 106.166 74.1077 106.335 77.7169 106.344V104.159C73.8418 104.15 69.9152 103.969 66.0429 103.621ZM145.97 78.0508C145.716 79.014 145.376 79.9399 144.961 80.8169C146.56 78.922 147.998 76.9467 149.245 74.9368C149.374 74.6924 149.54 74.3474 149.714 73.9017C148.604 75.3221 147.349 76.7138 145.97 78.0508ZM154.513 59.85C154.593 60.4279 154.642 61.003 154.659 61.5695C154.95 60.1548 155.162 58.7315 155.291 57.3082C155.079 58.1651 154.819 59.0133 154.513 59.8471V59.85ZM155.339 53.7198C155.182 52.4892 154.756 50.5771 153.638 48.2768C153.446 50.0135 153.04 51.7589 152.431 53.4697C153.323 55.2092 153.955 56.9661 154.313 58.7028C154.842 57.0552 155.185 55.3846 155.339 53.7227V53.7198ZM76.693 23.2471C76.8646 22.6577 77.0191 22.1229 77.1535 21.6571C76.8532 22.1516 76.5443 22.6635 76.2355 23.1896C76.3842 23.2098 76.5357 23.2299 76.693 23.2443V23.2471ZM88.4299 68.3121C88.0295 65.4856 87.5777 62.6046 87.0858 59.7436C84.1802 59.9966 81.2202 60.1289 78.2803 60.1375V68.7664C81.6721 68.7578 85.0839 68.6054 88.4299 68.3121ZM90.3003 85.2132C90.1058 82.7433 89.8684 80.2015 89.5939 77.6511C85.8618 77.9789 82.0553 78.1514 78.2774 78.1601V85.748C82.2898 85.7394 86.3336 85.5611 90.3003 85.2132ZM131.711 88.0195C129.137 89.3508 126.375 90.5958 123.489 91.7258C123.186 93.2095 122.72 94.5724 122.096 95.7858C124.796 94.7277 127.378 93.566 129.778 92.3296C130.479 91.2945 131.039 90.1473 131.445 88.9195C131.54 88.6349 131.628 88.333 131.711 88.0195ZM13.959 30.2227C14.305 28.7764 14.8227 27.333 15.5005 25.9241C13.3556 27.1461 11.4395 28.4975 9.7979 29.9495C9.02859 31.4447 8.43088 32.9801 8.0162 34.527C9.74069 32.9859 11.7369 31.5367 13.959 30.2198V30.2227ZM11.7769 65.5144C10.9276 67.5904 10.3842 69.6462 10.1611 71.6331C11.8856 73.3008 13.8475 74.9224 15.9952 76.455C16.2326 74.4653 16.756 72.3749 17.551 70.2328C15.429 68.7347 13.4871 67.1505 11.7769 65.5144ZM144.661 65.0975C145.516 67.1447 146.082 69.1718 146.348 71.1328C147.978 69.5025 149.411 67.8003 150.612 66.0722C150.372 64.1112 149.806 62.1071 148.93 60.1145C147.721 61.8254 146.288 63.5017 144.663 65.1003L144.661 65.0975ZM75.429 2.33493C75.6377 3.04225 75.8522 3.91348 76.0667 4.92847C76.7388 4.90834 77.3737 4.89684 78 4.89684C78.6263 4.89684 79.2698 4.90834 79.9361 4.92847C80.1535 3.91348 80.368 3.04225 80.5739 2.33493C78.7779 2.28029 77.225 2.28029 75.429 2.33493ZM89.7369 6.58178C88.367 6.30862 86.96 6.08435 85.5443 5.91183C84.7007 7.06196 83.837 8.41623 82.9733 9.94015C83.8427 10.0523 84.7007 10.1961 85.53 10.3686C86.9542 8.93379 88.367 7.66002 89.7369 6.58178ZM82.3613 9.8654C83.2107 8.34723 84.0572 6.99295 84.8837 5.83419C83.408 5.6703 81.9009 5.55816 80.3937 5.50353C80.1478 6.69679 79.8989 8.09132 79.6473 9.6555C80.5653 9.69288 81.4805 9.76476 82.3642 9.8654H82.3613ZM85.2641 5.31376C85.9933 4.33327 86.714 3.49656 87.409 2.81798C85.3584 2.58795 83.2564 2.42981 81.1544 2.35218C80.9457 3.04801 80.7283 3.91923 80.5081 4.94572C82.1039 5.00898 83.7026 5.13261 85.2612 5.31376H85.2641ZM88.8446 39.9068C90.266 39.648 91.6702 39.3346 93.0229 38.9752C91.224 36.304 89.3394 33.6874 87.4204 31.1917C86.6425 31.4016 85.836 31.5856 85.0153 31.7409C86.3165 34.3516 87.6034 37.0947 88.8446 39.9039V39.9068ZM113.205 88.5601C113.085 86.5215 112.793 84.2874 112.341 81.9181C109.101 82.8008 105.715 83.5628 102.275 84.1839C102.589 86.5934 102.795 88.8476 102.887 90.8949C106.416 90.2537 109.885 89.4687 113.205 88.5601ZM140.954 40.8384C141.5 39.2598 141.835 37.641 141.955 36.028C139.561 34.4839 136.876 33.0031 133.973 31.623C133.847 32.9974 133.547 34.3746 133.072 35.7203C135.932 37.3477 138.583 39.07 140.954 40.8384ZM132.583 35.4414C133.044 34.1044 133.33 32.7357 133.436 31.3699C130.404 29.9553 127.133 28.6441 123.698 27.471C123.595 28.5636 123.355 29.6591 122.983 30.7316C126.392 32.198 129.621 33.7823 132.583 35.4443V35.4414ZM83.1277 17.7323L83.1106 17.7208C83.0648 17.7409 83.0191 17.761 82.9733 17.7812C83.0248 17.7639 83.0763 17.7495 83.1277 17.7323ZM122.471 30.5045C122.834 29.4463 123.063 28.3623 123.152 27.2841C119.608 26.0937 115.865 25.0298 112.018 24.1241C111.944 24.9005 111.775 25.6768 111.518 26.4359C115.356 27.678 119.039 29.0467 122.471 30.5045ZM94.5901 14.6298C94.1897 14.3423 93.7722 14.0691 93.3432 13.8132C90.2231 14.8196 86.9857 16.0473 83.714 17.4591C83.7426 17.4792 83.7683 17.4994 83.7969 17.5195C87.4547 16.3694 91.0867 15.3975 94.5929 14.6327L94.5901 14.6298ZM83.5338 19.2159C83.8627 19.2044 84.1916 19.1929 84.5176 19.1843C84.5062 19.1556 84.4919 19.1297 84.4805 19.1009C84.163 19.1383 83.8456 19.1786 83.5338 19.2159ZM85.7417 18.3907C89.5996 17.9681 93.552 17.6978 97.5043 17.5856C97.307 17.278 97.0724 16.9617 96.8093 16.6483C93.2517 17.071 89.5367 17.6546 85.7417 18.3907ZM84.4261 20.8002C84.2402 20.7744 84.0543 20.7485 83.8656 20.7226C84.0458 20.7629 84.2231 20.806 84.4004 20.8463C84.409 20.8319 84.4175 20.8146 84.4261 20.8002ZM85.1897 20.3057L85.184 20.3373C89.4795 20.9555 93.8808 21.7779 98.2736 22.7871C98.3994 22.3932 98.4852 21.9964 98.5253 21.6053C94.1554 20.9958 89.6711 20.5558 85.1897 20.3028V20.3057ZM96.1888 26.0391C96.552 25.6768 96.878 25.3001 97.164 24.9148C93.123 23.6324 88.9104 22.4766 84.6377 21.4788C84.6092 21.5162 84.5777 21.5507 84.5491 21.5881C88.5243 22.951 92.4395 24.4462 96.1888 26.0391ZM97.7188 25.0902C97.4328 25.4928 97.101 25.8896 96.7293 26.2691C100.484 27.8793 104.142 29.6189 107.602 31.4361C108.275 30.7661 108.869 30.0732 109.373 29.3687C105.641 27.816 101.72 26.3755 97.7188 25.0902ZM105.346 34.044C108.44 36.1372 111.415 38.3225 114.186 40.5393C115.398 39.6825 116.511 38.7768 117.495 37.8423C114.418 35.8554 111.12 33.929 107.688 32.1146C106.985 32.7846 106.198 33.4315 105.346 34.044ZM104.86 33.7191C105.701 33.1239 106.479 32.4942 107.174 31.8444C103.71 30.03 100.05 28.2991 96.2917 26.6918C95.9171 27.0426 95.5138 27.3761 95.0906 27.6924C98.4366 29.5901 101.723 31.6143 104.86 33.7191ZM97.4957 24.4289C97.7331 24.058 97.9304 23.6871 98.0848 23.3219C93.6949 22.3155 89.2965 21.4961 85.0067 20.8808C84.9924 20.9124 84.9752 20.944 84.9609 20.9756C89.2393 21.982 93.4547 23.1408 97.4957 24.4289ZM117.909 37.4426C118.853 36.5081 119.68 35.5334 120.375 34.55C117.06 32.7903 113.537 31.1198 109.896 29.5872C109.39 30.3089 108.789 31.0191 108.112 31.7035C111.541 33.5207 114.835 35.4529 117.909 37.4426ZM117.969 38.1499C116.977 39.1017 115.853 40.0247 114.632 40.8988C117.403 43.1358 120.014 45.4475 122.402 47.7679C123.929 46.6868 125.328 45.5453 126.561 44.3664C123.912 42.2329 121.024 40.1425 117.969 38.1499ZM114.154 41.2323C112.985 42.0374 111.718 42.808 110.382 43.5239C112.85 45.9593 115.167 48.4436 117.269 50.9106C118.919 50.0337 120.486 49.0848 121.93 48.0928C119.537 45.7696 116.92 43.4635 114.152 41.2323H114.154ZM113.708 40.8729C110.937 38.6618 107.96 36.4794 104.857 34.389C104.016 34.967 103.104 35.519 102.146 36.0366C104.894 38.3483 107.525 40.732 109.97 43.1214C111.295 42.4198 112.55 41.6636 113.708 40.8729ZM84.0944 22.0424C87.5091 23.6094 91.0324 25.4094 94.5701 27.3962C94.979 27.103 95.3708 26.7867 95.7397 26.456C91.9933 24.8717 88.081 23.3823 84.1087 22.028C84.103 22.0309 84.1001 22.0366 84.0944 22.0395V22.0424ZM85.1096 19.1642C89.6254 19.0406 94.0639 19.0894 98.305 19.308C98.1849 18.9169 98.0248 18.523 97.8217 18.1377C93.5348 18.2498 89.2421 18.5517 85.0582 19.0319C85.0753 19.0779 85.0925 19.1211 85.1068 19.1671L85.1096 19.1642ZM85.224 19.7249V19.745C89.7054 19.998 94.1897 20.4351 98.5624 21.0475C98.5624 21.0331 98.5624 21.0188 98.5624 21.0044C98.5624 20.6421 98.5224 20.2654 98.448 19.8801C94.1983 19.6559 89.7512 19.6041 85.224 19.7249ZM98.6368 23.4484C98.4824 23.8308 98.2822 24.2161 98.0419 24.6043C102.046 25.8953 105.967 27.3387 109.696 28.8943C110.145 28.2042 110.514 27.4998 110.797 26.7924C106.873 25.5388 102.784 24.4145 98.6339 23.4484H98.6368ZM126.967 43.9725C128.148 42.7993 129.186 41.5802 130.052 40.3438C127.201 38.4174 124.112 36.557 120.867 34.8117C120.163 35.8152 119.331 36.8014 118.384 37.7503C121.433 39.7457 124.321 41.839 126.967 43.9753V43.9725ZM101.694 35.657C102.641 35.1567 103.539 34.619 104.368 34.0612C101.225 31.9622 97.9361 29.9409 94.5872 28.0518C94.1068 28.3796 93.6063 28.6873 93.0915 28.9719C96.0429 31.1083 98.9342 33.3568 101.691 35.657H101.694ZM83.3565 21.1855C83.5653 21.2545 83.7741 21.3264 83.9857 21.3983C84.0029 21.3782 84.0229 21.3609 84.04 21.3408C83.8141 21.2891 83.5882 21.2373 83.3565 21.1855ZM99.0829 21.6887C99.0372 22.0941 98.9514 22.5053 98.8198 22.9165C102.967 23.8826 107.059 25.0097 110.989 26.2662C111.24 25.5215 111.4 24.7567 111.469 23.9947C107.477 23.0718 103.313 22.2954 99.0829 21.6887ZM120.689 34.0842C121.347 33.0865 121.882 32.0629 122.279 31.0306C118.847 29.5729 115.164 28.2042 111.326 26.9621C111.04 27.6838 110.665 28.4055 110.211 29.1128C113.854 30.6511 117.377 32.3217 120.686 34.0842H120.689ZM122.334 48.4839C120.881 49.4902 119.299 50.4477 117.632 51.3419C119.7 53.7975 121.599 56.2846 123.277 58.7401C125.208 57.7079 127.041 56.5951 128.725 55.4306C126.798 53.093 124.647 50.7554 122.334 48.4839ZM111.14 54.3236C112.879 56.9459 114.475 59.5711 115.885 62.1301C118.31 61.1784 120.626 60.126 122.78 59.0018C121.098 56.5434 119.196 54.0562 117.126 51.6065C115.255 52.5812 113.245 53.4955 111.14 54.3236ZM116.763 51.178C114.658 48.711 112.336 46.2296 109.865 43.7971C108.377 44.5705 106.776 45.2951 105.106 45.9564C107.139 48.5586 109.061 51.2154 110.828 53.8521C112.916 53.0355 114.912 52.1355 116.763 51.1752V51.178ZM109.45 43.3945C106.996 41.0051 104.362 38.6244 101.614 36.3212C100.564 36.8618 99.4376 37.3736 98.2679 37.8394C100.527 40.3323 102.706 42.9115 104.751 45.505C106.398 44.8609 107.98 44.1536 109.453 43.3945H109.45ZM83.7798 18.2096C83.7512 18.1866 83.7254 18.1607 83.6969 18.1377C83.4395 18.2182 83.1764 18.3045 82.9104 18.3907C83.2021 18.3303 83.4909 18.27 83.7798 18.2096ZM84.3031 17.9479C84.346 17.9911 84.3889 18.0342 84.429 18.0773C88.51 17.2579 92.5195 16.608 96.3546 16.1394C96.0057 15.7771 95.6111 15.4205 95.1821 15.0755C91.6616 15.8288 88.0038 16.7949 84.3031 17.9479ZM98.1392 17.5684C102.14 17.4735 106.101 17.5425 109.919 17.7783C109.516 17.1141 109.032 16.4556 108.478 15.8173C104.98 15.8834 101.274 16.1393 97.4557 16.5735C97.7159 16.9042 97.9447 17.2377 98.1392 17.5684ZM98.4309 18.1233C98.6254 18.523 98.7769 18.9313 98.8885 19.3396C103.101 19.5725 107.219 19.9779 111.137 20.5472C110.929 19.8083 110.631 19.0751 110.251 18.362C106.427 18.1147 102.452 18.0342 98.4309 18.1233ZM99.02 19.9089C99.0858 20.2798 99.1201 20.6479 99.1201 21.0015C99.1201 21.0418 99.1201 21.082 99.1173 21.1223C103.341 21.7261 107.505 22.4996 111.503 23.4225C111.503 23.3334 111.506 23.2443 111.506 23.1551C111.506 22.4852 111.432 21.8066 111.286 21.1338C107.362 20.5587 103.235 20.1447 99.02 19.906V19.9089ZM130.358 39.878C131.202 38.6071 131.883 37.2931 132.386 35.9733C129.423 34.3085 126.197 32.7213 122.786 31.252C122.379 32.2958 121.836 33.3338 121.173 34.343C124.416 36.0883 127.504 37.9487 130.356 39.878H130.358ZM126.984 44.7143C125.743 45.9076 124.333 47.0634 122.794 48.1561C125.108 50.4304 127.255 52.7681 129.18 55.1086C130.962 53.8463 132.592 52.5064 134.028 51.1292C131.903 48.9497 129.532 46.7932 126.984 44.7143ZM116.148 62.6161C117.561 65.2154 118.805 67.783 119.846 70.2587C122.522 69.2063 125.079 68.0447 127.45 66.8054C126.197 64.37 124.73 61.9001 123.083 59.4561C120.918 60.5918 118.584 61.6528 116.145 62.6161H116.148ZM97.8618 37.3966C99.0114 36.9481 100.112 36.4564 101.145 35.9331C98.3794 33.6328 95.4824 31.3901 92.5281 29.2594C91.9447 29.5585 91.3327 29.8374 90.7092 30.0933C93.1459 32.4108 95.551 34.8663 97.8618 37.3966ZM92.5882 28.6125C93.0915 28.3451 93.5777 28.0547 94.0438 27.7499C90.5091 25.7717 86.9886 23.9832 83.5767 22.4277C83.5281 22.4593 83.4795 22.4909 83.4309 22.5226C86.3565 24.3053 89.5167 26.4043 92.591 28.6125H92.5882ZM97.021 16.0588C100.81 15.616 104.494 15.3515 107.977 15.2681C107.359 14.6183 106.662 13.9829 105.895 13.3762C102.675 13.6953 99.2974 14.2186 95.857 14.9317C96.286 15.2969 96.6778 15.6764 97.021 16.0588ZM138.369 45.9967C139.364 44.4958 140.168 42.9489 140.757 41.3876C138.398 39.6164 135.746 37.8883 132.878 36.2522C132.363 37.5835 131.671 38.9062 130.816 40.1914C133.559 42.069 136.098 44.0214 138.369 45.9967ZM130.501 40.6544C129.623 41.908 128.577 43.1415 127.39 44.3233C129.938 46.4021 132.306 48.5615 134.431 50.741C135.818 49.3637 137.036 47.926 138.051 46.4683C135.784 44.49 133.244 42.5348 130.499 40.6572L130.501 40.6544ZM129.071 55.8562C127.376 57.0322 125.531 58.1536 123.586 59.1973C125.231 61.6385 126.698 64.1112 127.95 66.5495C130.13 65.3879 132.194 64.1342 134.085 62.8202C132.623 60.4941 130.936 58.1536 129.071 55.8591V55.8562ZM119.328 70.4628C118.287 67.99 117.04 65.4195 115.624 62.8231C113.156 63.7748 110.548 64.6403 107.868 65.3936C108.961 68.0964 109.919 70.7561 110.717 73.3094C113.697 72.4755 116.591 71.5209 119.325 70.4657L119.328 70.4628ZM115.358 62.3343C113.946 59.7752 112.347 57.1501 110.605 54.5307C108.498 55.3386 106.27 56.0747 103.979 56.7188C105.323 59.4532 106.561 62.1934 107.66 64.8761C110.322 64.1314 112.913 63.2745 115.358 62.3343ZM110.291 54.0591C108.52 51.4196 106.593 48.7656 104.557 46.1692C102.875 46.8133 101.099 47.3999 99.2717 47.9145C100.847 50.6432 102.346 53.4352 103.727 56.2127C105.998 55.5802 108.203 54.8556 110.291 54.062V54.0591ZM104.199 45.712C102.149 43.1156 99.9638 40.5393 97.7045 38.0522C96.5005 38.5122 95.2278 38.932 93.918 39.303C95.6911 41.9626 97.3928 44.6913 98.9828 47.4142C100.787 46.9111 102.541 46.3389 104.199 45.7092V45.712ZM82.979 22.1574C82.7788 22.0683 82.5815 21.9791 82.3842 21.8929C82.5558 21.9935 82.7274 22.097 82.9018 22.2034C82.9275 22.189 82.9533 22.1747 82.979 22.1603V22.1574ZM83.1306 17.0968C86.3651 15.6908 89.5739 14.4602 92.6768 13.4423C92.1478 13.1576 91.5929 12.8874 91.021 12.6401C88.3756 13.8736 85.6473 15.3314 82.9104 16.9761C82.9847 17.0134 83.0591 17.0537 83.1335 17.094L83.1306 17.0968ZM102.126 10.8948C101.194 10.383 100.198 9.89702 99.1602 9.44847C96.7378 10.2076 94.224 11.1794 91.6873 12.3324C92.2736 12.6027 92.8456 12.896 93.3918 13.2094C96.3718 12.2548 99.3089 11.4785 102.126 10.8948ZM94.0267 13.5918C94.4785 13.8765 94.9047 14.1698 95.2993 14.4745C98.7054 13.7528 102.049 13.218 105.246 12.8787C104.505 12.3324 103.704 11.8062 102.864 11.3117C100.015 11.8752 97.0438 12.643 94.0267 13.5918ZM121.081 18.9945C120.515 18.0514 119.831 17.1198 119.042 16.2199C115.933 15.9007 112.619 15.7627 109.184 15.8029C109.722 16.4556 110.191 17.1342 110.582 17.8214C114.183 18.0629 117.715 18.4569 121.081 18.9974V18.9945ZM110.897 18.4051C111.263 19.1354 111.546 19.883 111.741 20.6364C115.53 21.2057 119.228 21.9389 122.734 22.8187C122.442 21.7405 122.008 20.668 121.439 19.6214C118.07 19.0693 114.526 18.6581 110.897 18.4051ZM111.872 21.2258C111.998 21.8699 112.064 22.5197 112.064 23.158C112.064 23.2903 112.061 23.4225 112.055 23.5548C115.893 24.4577 119.637 25.5158 123.186 26.7033C123.192 26.5451 123.194 26.387 123.194 26.226C123.194 25.303 123.092 24.3656 122.886 23.4369C119.371 22.5456 115.667 21.8009 111.872 21.2258ZM138.472 46.8305C137.439 48.3056 136.21 49.7519 134.817 51.132C136.873 53.2713 138.732 55.4651 140.348 57.659C141.895 56.1207 143.251 54.5163 144.378 52.886C142.736 50.8876 140.751 48.849 138.472 46.8305ZM134.414 51.5231C132.967 52.9119 131.328 54.2604 129.535 55.5341C131.399 57.8287 133.084 60.172 134.548 62.4982C136.536 61.0893 138.349 59.5941 139.942 58.0558C138.329 55.8591 136.47 53.6623 134.414 51.5231ZM127.707 67.2971C125.322 68.545 122.751 69.7124 120.066 70.7705C121.095 73.2663 121.925 75.6902 122.537 77.9789C125.394 76.8633 128.125 75.6269 130.659 74.31C129.924 72.0903 128.931 69.7325 127.707 67.2971ZM119.545 70.9746C116.791 72.0385 113.88 73.0017 110.888 73.8384C111.675 76.4032 112.31 78.8846 112.776 81.2194C115.97 80.3309 119.076 79.3102 122.01 78.1831C121.404 75.9001 120.572 73.4762 119.542 70.9746H119.545ZM112.238 81.3689C111.772 79.037 111.14 76.5556 110.351 73.988C107.302 74.8247 104.119 75.5464 100.888 76.1358C101.437 78.7438 101.877 81.2597 102.203 83.626C105.629 83.0079 109.001 82.2459 112.235 81.3661L112.238 81.3689ZM93.5977 38.8199C94.8818 38.4605 96.1287 38.0579 97.3098 37.6151C94.9933 35.0877 92.5825 32.6351 90.143 30.3204C89.4538 30.5821 88.7388 30.8207 88.0095 31.0335C89.9256 33.5322 91.8046 36.1516 93.5977 38.8199ZM90.2774 29.6764C90.8808 29.4377 91.47 29.1789 92.0362 28.9C88.9504 26.6918 85.7903 24.6014 82.8789 22.8389C82.7903 22.882 82.7016 22.9251 82.6072 22.9682C85.1897 25.0557 87.7693 27.3129 90.2774 29.6764ZM82.4871 17.3815C82.4442 17.3614 82.3985 17.3412 82.3527 17.3211C82.1153 17.4649 81.878 17.6115 81.6406 17.7582C81.9237 17.6316 82.204 17.5051 82.4871 17.3815ZM91.001 12.0334C93.4976 10.8746 95.9685 9.89415 98.3508 9.10919C97.2984 8.68364 96.1859 8.28397 95.0334 7.92455C93.1173 8.85616 91.1239 9.99766 89.1049 11.3203C89.7483 11.536 90.3832 11.7746 91.001 12.0334ZM106.055 12.7982C108.618 12.5509 111.12 12.4244 113.52 12.4244C113.989 12.4244 114.455 12.4302 114.915 12.4388C113.863 11.651 112.722 10.8948 111.512 10.1874C109.024 10.3254 106.39 10.6504 103.673 11.1564C104.522 11.6797 105.323 12.2289 106.052 12.7953L106.055 12.7982ZM106.684 13.3043C107.437 13.9311 108.12 14.5867 108.718 15.2537C112.127 15.1991 115.41 15.317 118.496 15.6074C117.663 14.7218 116.717 13.8563 115.673 13.0254C112.825 12.9305 109.799 13.0254 106.684 13.3072V13.3043ZM123.761 26.226C123.761 26.4301 123.755 26.6429 123.744 26.8873C127.175 28.0547 130.45 29.3601 133.476 30.7632C133.484 30.5505 133.49 30.3492 133.49 30.1537C133.49 28.9777 133.356 27.7873 133.087 26.6141C130.047 25.4755 126.824 24.4605 123.498 23.5951C123.675 24.472 123.764 25.3576 123.764 26.226H123.761ZM141.223 41.7355C140.617 43.2996 139.799 44.8552 138.792 46.3619C141.066 48.3746 143.053 50.4017 144.704 52.3972C145.807 50.7266 146.694 49.0014 147.343 47.2647C145.622 45.3871 143.565 43.5268 141.223 41.7355ZM144.738 53.3316C143.594 54.9677 142.227 56.575 140.674 58.1076C142.227 60.264 143.488 62.432 144.426 64.5512C146.053 62.9324 147.478 61.2417 148.662 59.528C147.689 57.4635 146.371 55.3789 144.735 53.3288L144.738 53.3316ZM134.379 63.2831C132.475 64.6029 130.398 65.8652 128.205 67.0354C129.429 69.468 130.421 71.8228 131.162 74.0455C133.519 72.7947 135.744 71.4462 137.783 70.0315C136.939 67.852 135.795 65.5805 134.379 63.2831ZM132.183 81.2309C131.994 79.2326 131.537 77.0847 130.83 74.8391C128.285 76.1617 125.542 77.3981 122.68 78.5166C123.266 80.8169 123.646 83.0136 123.812 85.0465C126.752 83.8877 129.569 82.6024 132.186 81.2309H132.183ZM123.266 85.2592C123.112 83.2292 122.74 81.0296 122.153 78.7207C119.208 79.8507 116.091 80.8744 112.888 81.7657C113.339 84.1264 113.634 86.3605 113.76 88.4077C117.057 87.4847 120.255 86.4266 123.266 85.2592ZM113.239 89.1323C109.913 90.0409 106.441 90.823 102.912 91.4613C102.984 93.4683 102.941 95.3114 102.789 96.9445C106.296 96.3005 109.733 95.5126 113.013 94.6098C113.254 92.9651 113.328 91.1249 113.239 89.1352V89.1323ZM91.1811 98.549C94.8932 98.2011 98.5996 97.6979 102.197 97.0509C102.363 95.4235 102.415 93.5804 102.352 91.5619C98.7369 92.1974 95.0105 92.6948 91.2698 93.0398C91.307 95.067 91.2784 96.9187 91.1811 98.549ZM110.185 73.4589C109.387 70.9085 108.426 68.2488 107.334 65.546C104.574 66.3022 101.697 66.9578 98.7769 67.4926C99.5462 70.2817 100.218 73.0046 100.773 75.5924C103.985 75.0087 107.151 74.2899 110.185 73.4589ZM107.122 65.0256C106.021 62.3458 104.783 59.6027 103.436 56.8712C101.056 57.521 98.5739 58.0846 96.0515 58.5446C96.9981 61.3941 97.8646 64.2205 98.6282 66.9492C101.525 66.423 104.382 65.776 107.122 65.0256ZM103.187 56.3622C101.806 53.5904 100.304 50.8014 98.7226 48.0669C96.8065 48.5902 94.8074 49.0417 92.7769 49.4126C93.8808 52.2822 94.9218 55.1719 95.8742 58.0069C98.3708 57.5555 100.827 57.0006 103.187 56.3622ZM98.4309 47.5695C96.8379 44.8437 95.1335 42.1179 93.3575 39.4611C91.979 39.8349 90.5434 40.1598 89.082 40.4301C90.2917 43.1933 91.4642 46.037 92.571 48.8806C94.5729 48.5184 96.5405 48.0784 98.4309 47.5666V47.5695ZM82.3098 22.4967C81.9295 22.2695 81.5548 22.0481 81.1888 21.8382C81.5033 22.0855 81.8151 22.3299 82.1211 22.5772C82.184 22.5513 82.2469 22.5254 82.3098 22.4967ZM82.2984 16.6972C85.0095 15.0554 87.7092 13.5947 90.3232 12.3497C89.7398 12.1196 89.1335 11.904 88.5157 11.7085C86.4023 13.1289 84.2259 14.7736 82.041 16.5965C82.1296 16.6282 82.2154 16.6627 82.2984 16.6972ZM94.2383 7.68015C93.04 7.32648 91.7903 7.0102 90.5176 6.73992C89.1192 7.80091 87.6721 9.06893 86.2107 10.5123C86.96 10.682 87.7035 10.8804 88.4185 11.0989C90.3947 9.78201 92.3508 8.63188 94.2383 7.67727V7.68015ZM99.9724 9.2012C101.016 9.67562 102.02 10.1874 102.958 10.728C105.603 10.2133 108.18 9.86252 110.628 9.68425C109.364 8.98555 108.014 8.32422 106.607 7.71178C104.479 8.02231 102.249 8.52262 99.9724 9.19832V9.2012ZM119.846 16.3032C120.598 17.2118 121.253 18.155 121.796 19.1096C125.005 19.6472 128.056 20.3574 130.876 21.2287C130.184 20.0843 129.352 18.9485 128.394 17.8502C125.737 17.1658 122.866 16.6483 119.848 16.3061L119.846 16.3032ZM122.136 19.7364C122.68 20.7945 123.089 21.8814 123.36 22.974C126.663 23.8251 129.878 24.8228 132.918 25.9471C132.552 24.5957 132.003 23.2529 131.285 21.9446C128.454 21.0389 125.377 20.2971 122.133 19.7364H122.136ZM133.707 26.8442C133.933 27.9483 134.048 29.0582 134.048 30.1508C134.048 30.4153 134.039 30.6914 134.022 31.0163C136.913 32.382 139.596 33.8513 142.001 35.3839C142.012 35.128 142.018 34.8893 142.018 34.6622C142.018 33.3079 141.864 31.9364 141.558 30.5821C139.213 29.2077 136.573 27.9512 133.707 26.8471V26.8442ZM147.555 46.6724C148.15 44.9328 148.516 43.1501 148.642 41.3732C146.897 39.6049 144.829 37.9257 142.49 36.3759C142.344 37.9918 141.984 39.6077 141.423 41.1892C143.76 42.9661 145.822 44.8121 147.555 46.6753V46.6724ZM140.268 58.5044C138.661 60.0484 136.836 61.5493 134.84 62.964C136.255 65.2614 137.402 67.5271 138.255 69.7066C140.377 68.2028 142.307 66.6128 144 64.9767C143.082 62.8576 141.827 60.681 140.268 58.5072V58.5044ZM131.334 74.5774C132.046 76.8115 132.509 78.9508 132.718 80.9462C135.149 79.6466 137.425 78.2607 139.49 76.8202C139.281 74.8276 138.772 72.7257 137.98 70.5635C135.935 71.9752 133.699 73.3238 131.334 74.5774ZM132.235 81.8405C129.606 83.2091 126.786 84.4886 123.852 85.6388C123.972 87.5882 123.892 89.4169 123.612 91.0818C126.526 89.9288 129.309 88.6579 131.886 87.3065C132.252 85.6187 132.369 83.7813 132.235 81.8405ZM123.306 85.8487C120.289 87.0103 117.089 88.0655 113.791 88.9828C113.886 90.961 113.826 92.7983 113.608 94.443C116.854 93.5287 120.011 92.4792 123.003 91.3204C123.315 89.6556 123.415 87.8154 123.306 85.8487ZM111.698 99.2132C112.247 98.0602 112.656 96.7174 112.919 95.2165C109.642 96.1136 106.215 96.8899 102.732 97.5282C102.566 98.9947 102.303 100.306 101.951 101.43C105.275 100.818 108.552 100.073 111.698 99.2132ZM102.332 90.9984C102.246 88.954 102.043 86.694 101.728 84.2845C98.2135 84.9027 94.5729 85.3886 90.9037 85.725C91.0867 88.1576 91.2069 90.4291 91.2583 92.4792C94.9962 92.1341 98.7197 91.6367 102.332 90.9984ZM101.654 83.7296C101.331 81.3689 100.89 78.8501 100.341 76.2393C97.0324 76.8259 93.6091 77.286 90.1573 77.6051C90.4318 80.1555 90.6692 82.6973 90.8637 85.1672C94.5215 84.8308 98.1506 84.3478 101.657 83.7296H101.654ZM87.6463 59.6976C88.1354 62.5586 88.5872 65.4396 88.9905 68.2661C92.0648 67.9814 95.1192 67.5731 98.0734 67.0527C97.3098 64.3211 96.4433 61.4947 95.4938 58.6481C92.9399 59.0967 90.3003 59.4503 87.6463 59.6976ZM88.5129 40.5393C87.0229 40.7981 85.49 41.0023 83.9542 41.1489C84.0829 41.7671 84.2459 42.5147 84.4318 43.3859C84.7865 45.0191 85.2669 47.2475 85.7874 49.8094C87.8866 49.6167 89.9771 49.3378 92.0048 48.987C90.9009 46.1462 89.7254 43.3054 88.51 40.5393H88.5129ZM88.2812 40.0132C87.0372 37.2011 85.7474 34.458 84.4461 31.8559C83.5882 32.0054 82.6988 32.1233 81.8008 32.2124C82.7016 35.611 83.388 38.4317 83.8398 40.5997C85.3384 40.4588 86.8313 40.2633 88.2812 40.016V40.0132ZM87.6435 30.5648C88.3441 30.3664 89.0305 30.145 89.6911 29.9035C87.1773 27.54 84.592 25.2915 82.0095 23.2155C81.8951 23.2558 81.7807 23.296 81.6663 23.3334C83.6797 25.602 85.6873 28.0317 87.6435 30.562V30.5648ZM81.6949 17.071C81.6463 17.0537 81.5948 17.0365 81.5462 17.0221C81.3432 17.1946 81.1373 17.37 80.9314 17.5483C81.1859 17.3901 81.4404 17.2291 81.6949 17.0738V17.071ZM85.7388 10.9896C84.2002 12.5481 82.6187 14.3308 81.0315 16.2975C81.1601 16.3291 81.286 16.3636 81.4118 16.401C83.5739 14.5838 85.7274 12.9391 87.8208 11.513C87.1487 11.3203 86.448 11.1449 85.7388 10.9896ZM82.6816 10.475C81.7636 12.1312 80.8284 14.0145 79.9018 16.0703C80.0791 16.0962 80.2536 16.125 80.4223 16.1595C81.9838 14.2071 83.5453 12.4216 85.0696 10.8516C84.2974 10.7021 83.4967 10.5756 82.6845 10.475H82.6816ZM75.612 5.50928C74.102 5.56679 72.592 5.67893 71.122 5.83994C71.9485 6.9987 72.795 8.35298 73.6444 9.87115C74.5281 9.77051 75.4404 9.7015 76.3613 9.66412C76.1096 8.09995 75.858 6.70542 75.6149 5.50928H75.612ZM18.0286 70.5692C17.2364 72.7314 16.7274 74.8333 16.5186 76.8259C18.5863 78.2664 20.8627 79.6524 23.2907 80.952C23.4995 78.9594 23.9657 76.8173 24.6749 74.5832C22.3098 73.3324 20.0763 71.9839 18.0286 70.5692ZM53.0963 91.467C49.5672 90.8287 46.0953 90.0466 42.7693 89.138C42.6806 91.1306 42.7579 92.9708 42.9952 94.6127C46.2755 95.5184 49.7159 96.3034 53.2192 96.9474C53.0677 95.3142 53.0248 93.474 53.0963 91.4642V91.467ZM43.6644 81.921C43.2126 84.2903 42.9237 86.5244 42.8008 88.563C46.1182 89.4716 49.5872 90.2565 53.1192 90.8977C53.2107 88.8505 53.4166 86.5963 53.7312 84.1867C50.2907 83.5657 46.9047 82.8037 43.6644 81.921ZM22.9304 35.7232C22.4557 34.3775 22.1554 33.0002 22.0295 31.6258C19.1268 33.006 16.4414 34.4897 14.0477 36.0337C14.1678 37.6468 14.5052 39.2627 15.0486 40.8441C17.4166 39.0758 20.0677 37.3535 22.9304 35.726V35.7232ZM51.4461 46.1721C49.4128 48.7685 47.4852 51.4224 45.7121 54.062C47.7969 54.8584 50.0048 55.5802 52.2755 56.2127C53.6568 53.4352 55.1554 50.6461 56.7312 47.9145C54.9037 47.3999 53.1249 46.8133 51.4461 46.1692V46.1721ZM73.5243 17.3844C73.8046 17.508 74.0848 17.6345 74.368 17.761C74.1306 17.6144 73.8932 17.4677 73.6559 17.324C73.6101 17.3441 73.5672 17.3642 73.5214 17.3844H73.5243ZM33.0229 30.7287C32.6511 29.6562 32.4109 28.5636 32.3079 27.4681C28.8732 28.6413 25.5987 29.9553 22.5701 31.3699C22.6759 32.7357 22.9619 34.1044 23.4223 35.4414C26.3851 33.7795 29.6139 32.1952 33.0229 30.7287ZM44.4881 26.4388C44.2307 25.6768 44.062 24.9005 43.9876 24.127C40.1411 25.0327 36.3975 26.0966 32.8541 27.287C32.9428 28.3681 33.1716 29.4521 33.5348 30.5073C36.9695 29.0495 40.653 27.6809 44.4881 26.4388ZM73.0953 18.3907C72.8294 18.3045 72.5662 18.2211 72.3089 18.1377C72.2803 18.1607 72.2517 18.1866 72.2259 18.2096C72.5148 18.27 72.8036 18.3275 73.0953 18.3907ZM71.4881 19.1872C71.817 19.1987 72.1459 19.2073 72.4747 19.2188C72.1601 19.1786 71.8427 19.1412 71.5253 19.1009C71.511 19.1297 71.4995 19.1556 71.4881 19.1843V19.1872ZM70.8217 20.3431C70.8217 20.3431 70.8189 20.3229 70.816 20.3114C66.3346 20.5645 61.8503 21.0044 57.4805 21.614C57.5234 22.005 57.6063 22.3989 57.7321 22.7957C62.1249 21.7865 66.5262 20.9613 70.8217 20.3459V20.3431ZM72.1401 20.7284C71.9514 20.7542 71.7655 20.7801 71.5796 20.806C71.5882 20.8204 71.5968 20.8376 71.6053 20.852C71.7826 20.8117 71.96 20.7686 72.143 20.7284H72.1401ZM48.4032 31.4418C51.8637 29.6246 55.5186 27.8879 59.2765 26.2749C58.9075 25.8953 58.5758 25.4985 58.2869 25.096C54.2831 26.3812 50.3651 27.8218 46.633 29.3745C47.1363 30.0789 47.7312 30.7747 48.4032 31.4418ZM59.817 26.0448C63.5662 24.4519 67.4814 22.9567 71.4566 21.5938C71.4252 21.5565 71.3966 21.522 71.368 21.4846C67.0925 22.4823 62.8799 23.6382 58.8418 24.9206C59.1277 25.3059 59.4566 25.6854 59.8198 26.0448H59.817ZM71.897 22.0366C67.919 23.3938 64.0067 24.8803 60.266 26.4646C60.6349 26.7953 61.0267 27.1116 61.4356 27.4049C64.9733 25.418 68.4967 23.6181 71.9113 22.051C71.9056 22.0481 71.8999 22.0424 71.897 22.0395V22.0366ZM59.7112 26.7004C55.9476 28.3077 52.2898 30.0415 48.8294 31.853C49.5243 32.5028 50.3022 33.1325 51.143 33.7277C54.2803 31.6258 57.5634 29.5987 60.9094 27.701C60.489 27.3876 60.0858 27.0541 59.7083 26.7004H59.7112ZM48.3146 32.1204C44.8856 33.9347 41.5853 35.8612 38.5081 37.848C39.4919 38.7825 40.6044 39.6882 41.817 40.5451C44.5882 38.3253 47.5624 36.143 50.6568 34.0497C49.8046 33.4373 49.0181 32.7875 48.3146 32.1204ZM29.4452 44.3721C30.6778 45.5482 32.0734 46.6925 33.6034 47.7736C35.9914 45.4533 38.6025 43.1415 41.3737 40.9045C40.1497 40.0304 39.0286 39.1074 38.0362 38.1557C34.9819 40.1483 32.0934 42.2387 29.448 44.3721H29.4452ZM38.0934 37.4484C41.1678 35.4558 44.4652 33.5264 47.8913 31.7092C47.2135 31.0249 46.6158 30.3147 46.1068 29.593C42.4633 31.1255 38.9399 32.7961 35.6282 34.5558C36.3232 35.542 37.1525 36.5139 38.0934 37.4484ZM70.9933 20.8865C66.7035 21.499 62.305 22.3213 57.9152 23.3277C58.0696 23.6928 58.2669 24.0637 58.5043 24.4375C62.5453 23.1523 66.7607 21.9906 71.0391 20.9843C71.0219 20.9526 71.0076 20.921 70.9933 20.8894V20.8865ZM71.9657 21.3437C71.9828 21.3638 72 21.3811 72.02 21.4012C72.2317 21.3293 72.4404 21.2603 72.6492 21.1884C72.4204 21.2402 72.1916 21.2919 71.9657 21.3437ZM37.6244 37.7532C36.6778 36.8043 35.8427 35.8181 35.142 34.8146C31.8932 36.5599 28.8046 38.4202 25.9561 40.3467C26.8227 41.5831 27.8608 42.8051 29.0419 43.9753C31.6873 41.839 34.5758 39.7457 37.6244 37.7503V37.7532ZM46.3098 28.9C50.0419 27.3416 53.9628 25.9011 57.9638 24.6101C57.7235 24.2219 57.5234 23.8366 57.3689 23.4542C53.225 24.4203 49.1354 25.5445 45.2088 26.7982C45.4919 27.5055 45.8608 28.2128 46.3098 28.9ZM70.7817 19.7306C66.2545 19.6099 61.8074 19.6616 57.5577 19.8859C57.4805 20.2741 57.4433 20.6421 57.4433 21.0101C57.4433 21.0245 57.4433 21.0389 57.4433 21.0533C61.816 20.4437 66.3031 20.0067 70.7817 19.7508V19.7306ZM70.9476 19.0377C66.7636 18.5575 62.4738 18.2585 58.184 18.1434C57.9809 18.5316 57.8179 18.9227 57.7007 19.3166C60.4175 19.1757 63.2173 19.1067 66.0658 19.1067C67.6616 19.1067 69.2745 19.1297 70.8989 19.1728C70.9132 19.1268 70.9304 19.0837 70.9476 19.0377ZM61.4214 28.0576C58.0782 29.9438 54.7893 31.9651 51.6435 34.067C52.4757 34.6248 53.3737 35.1625 54.3174 35.6628C57.0772 33.3597 59.9685 31.1112 62.9171 28.9777C62.4023 28.693 61.8989 28.3853 61.4214 28.0576ZM51.1516 34.3976C48.0486 36.488 45.0743 38.6675 42.3003 40.8815C43.4585 41.6722 44.714 42.4255 46.0381 43.13C48.4833 40.7406 51.1144 38.357 53.8627 36.0452C52.9018 35.5277 51.9924 34.9756 51.1516 34.3976ZM45.6263 43.5325C44.2907 42.8166 43.0238 42.046 41.8541 41.2409C39.0829 43.4722 36.469 45.781 34.0753 48.1014C35.5195 49.0934 37.0867 50.0423 38.7369 50.9193C40.8418 48.4493 43.1582 45.9651 45.6234 43.5325H45.6263ZM35.3193 34.0929C38.6311 32.3303 42.1544 30.6597 45.795 29.1214C45.3403 28.417 44.9657 27.6924 44.6797 26.9707C40.8446 28.2128 37.1611 29.5815 33.7264 31.0393C34.1268 32.0686 34.6616 33.0951 35.3165 34.0929H35.3193ZM57.1887 22.9251C57.0601 22.5139 56.9714 22.1028 56.9256 21.6973C52.6959 22.304 48.5291 23.0804 44.5396 24.0034C44.6082 24.7653 44.7683 25.5273 45.02 26.2749C48.9495 25.0183 53.0419 23.8912 57.1887 22.9251ZM70.2669 18.3994C66.4719 17.6661 62.7569 17.0796 59.1992 16.6569C58.9361 16.9703 58.7016 17.2837 58.5043 17.5943C62.4538 17.7064 66.4032 17.9767 70.2669 18.3994ZM72.4261 22.4392C69.0143 23.9919 65.4967 25.7832 61.959 27.7614C62.4223 28.0662 62.9113 28.3566 63.4147 28.624C66.4833 26.4186 69.6435 24.3168 72.5748 22.5341C72.5262 22.5024 72.4747 22.4708 72.4261 22.4392ZM33.6778 48.4925C31.3613 50.7669 29.2135 53.1016 27.286 55.4393C28.9704 56.6038 30.8036 57.7165 32.734 58.7488C34.4128 56.2932 36.3089 53.8061 38.3794 51.3506C36.715 50.4592 35.1335 49.4988 33.6778 48.4925ZM33.2116 48.1676C31.673 47.0749 30.266 45.9162 29.0219 44.7258C26.4709 46.8047 24.103 48.9612 21.9781 51.1407C23.4109 52.5179 25.041 53.8578 26.8255 55.1201C28.7531 52.7796 30.9009 50.442 33.2116 48.1676ZM25.6501 39.8895C28.5014 37.963 31.5901 36.1027 34.8332 34.3545C34.1697 33.3424 33.6263 32.3044 33.2202 31.2607C29.8112 32.73 26.5825 34.3171 23.6196 35.982C24.123 37.3017 24.8036 38.6157 25.6473 39.8866L25.6501 39.8895ZM44.5052 23.4369C48.5033 22.5139 52.6702 21.7405 56.8913 21.1367C56.8913 21.0964 56.8885 21.0562 56.8885 21.0159C56.8885 20.6594 56.9228 20.2942 56.9886 19.9233C52.776 20.1619 48.652 20.5731 44.7226 21.151C44.5767 21.8239 44.5024 22.5024 44.5024 23.1724C44.5024 23.2615 44.5024 23.3507 44.5052 23.4398V23.4369ZM57.1172 19.3511C57.2288 18.9428 57.3832 18.5345 57.5748 18.1348C53.5567 18.0457 49.5815 18.1262 45.755 18.3735C45.3746 19.0866 45.0772 19.8198 44.8684 20.5587C48.7865 19.9923 52.9047 19.584 57.1172 19.3511ZM54.4147 17.5368C55.5615 17.5368 56.714 17.5511 57.8694 17.5799C58.0639 17.2492 58.2927 16.9157 58.5529 16.585C54.735 16.1509 51.0286 15.8949 47.531 15.8288C46.979 16.4671 46.4928 17.1256 46.0896 17.7898C48.8036 17.623 51.592 17.5368 54.4147 17.5368ZM71.5796 18.0859C71.6196 18.0428 71.6625 17.9997 71.7054 17.9566C68.0048 16.8035 64.347 15.8374 60.8265 15.087C60.3947 15.432 60.0029 15.7886 59.6539 16.1509C63.489 16.6167 67.4986 17.2694 71.5796 18.0859ZM72.2173 17.5281C72.2431 17.508 72.2717 17.4879 72.3003 17.4677C69.0286 16.056 65.7912 14.8311 62.6711 13.8218C62.2421 14.0749 61.8217 14.3509 61.4214 14.6384C64.9304 15.4061 68.5596 16.3751 72.2173 17.5253V17.5281ZM73.041 17.7898C72.9952 17.7697 72.9466 17.7495 72.9009 17.7294C72.8951 17.7323 72.8894 17.7352 72.8837 17.7409C72.9352 17.7582 72.9895 17.7754 73.041 17.7898ZM73.0324 22.1689C73.0582 22.1833 73.0839 22.1977 73.1096 22.212C73.2841 22.1085 73.4557 22.005 73.6301 21.9015C73.4328 21.9878 73.2326 22.0769 73.0324 22.1689ZM65.7398 29.6879C68.2479 27.3244 70.8275 25.0672 73.4099 22.9797C73.3184 22.9366 73.2269 22.8964 73.1382 22.8504C70.224 24.6129 67.0639 26.7062 63.9781 28.9115C64.5415 29.1904 65.1335 29.4521 65.7369 29.6879H65.7398ZM63.4776 29.2738C60.5205 31.4073 57.6235 33.6501 54.8608 35.9474C55.8932 36.4708 56.9971 36.9624 58.1468 37.411C60.4576 34.8807 62.8627 32.4252 65.2993 30.1077C64.6759 29.8546 64.0639 29.5729 63.4776 29.2738ZM54.4032 36.3299C51.6549 38.6359 49.0181 41.0138 46.5672 43.406C48.04 44.1622 49.6187 44.8724 51.2688 45.5136C53.3136 42.9172 55.4928 40.3381 57.7521 37.848C56.5796 37.3822 55.4557 36.8733 54.4061 36.3299H54.4032ZM46.1525 43.8086C43.6816 46.2382 41.3622 48.7196 39.2545 51.1895C41.1106 52.1499 43.1039 53.0499 45.1888 53.8665C46.9561 51.2269 48.8808 48.573 50.9113 45.9708C49.2412 45.3124 47.6425 44.5878 46.1525 43.8115V43.8086ZM38.8913 51.618C36.8208 54.0706 34.919 56.5578 33.2374 59.0133C35.388 60.1375 37.7073 61.1899 40.1325 62.1416C41.5424 59.5826 43.1382 56.9574 44.877 54.3351C42.7722 53.507 40.7617 52.5956 38.8913 51.618ZM32.9256 59.4705C31.2784 61.9116 29.8112 64.3844 28.5586 66.8198C30.9323 68.0591 33.489 69.2207 36.163 70.273C37.204 67.7974 38.448 65.2297 39.8608 62.6304C37.4185 61.6672 35.0848 60.6062 32.9228 59.4705H32.9256ZM26.9428 55.8677C25.0782 58.1651 23.3909 60.5056 21.9295 62.8288C23.8227 64.1429 25.8846 65.3965 28.0639 66.5581C29.3165 64.1227 30.7836 61.65 32.428 59.2059C30.4805 58.1622 28.6358 57.0408 26.9428 55.8648V55.8677ZM28.6244 44.3319C27.4375 43.1501 26.3909 41.9166 25.5129 40.663C22.7674 42.5434 20.2278 44.4958 17.96 46.474C18.9752 47.9347 20.1935 49.3723 21.5806 50.7467C23.7083 48.5672 26.0763 46.4079 28.6215 44.329L28.6244 44.3319ZM17.6454 46.0053C19.9161 44.0271 22.4557 42.0748 25.1983 40.2001C24.346 38.9177 23.6511 37.5921 23.1363 36.2637C20.2679 37.8998 17.6196 39.6279 15.2574 41.3991C15.8465 42.9575 16.6501 44.5073 17.6454 46.0082V46.0053ZM58.9733 16.0617C59.3165 15.6793 59.7083 15.2998 60.1373 14.9346C56.6997 14.2215 53.3251 13.7011 50.0991 13.379C49.3327 13.9857 48.6349 14.6212 48.02 15.271C51.5033 15.3544 55.1868 15.6189 58.9762 16.0617H58.9733ZM72.8694 17.0997C72.9409 17.0595 73.0153 17.0192 73.0925 16.9818C70.3527 15.3371 67.6244 13.8793 64.9819 12.6458C64.4099 12.8931 63.8551 13.1605 63.3289 13.4452C66.4261 14.4659 69.6349 15.6937 72.8694 17.0997ZM21.5891 51.5259C19.5329 53.6652 17.674 55.8619 16.061 58.0587C17.6568 59.597 19.47 61.0921 21.4576 62.5011C22.9218 60.172 24.6091 57.8315 26.4709 55.537C24.6806 54.2661 23.0391 52.9176 21.592 51.5259H21.5891ZM32.8112 26.7062C36.3603 25.5187 40.1039 24.4605 43.9418 23.5577C43.9361 23.4254 43.9333 23.2932 43.9333 23.1609C43.9333 22.5226 43.9962 21.8756 44.1249 21.2287C40.3298 21.8037 36.6263 22.5484 33.1115 23.4398C32.9085 24.3656 32.8027 25.303 32.8027 26.226C32.8027 26.3841 32.8055 26.5451 32.8112 26.7033V26.7062ZM44.2564 20.6421C44.4509 19.8888 44.734 19.1412 45.1001 18.4109C41.4709 18.6639 37.9247 19.0751 34.5586 19.6271C33.9895 20.6709 33.5548 21.7462 33.2631 22.8245C36.7693 21.9446 40.4671 21.2114 44.2564 20.6421ZM45.4147 17.8243C45.8065 17.1371 46.2755 16.4585 46.8131 15.8058C43.3813 15.7656 40.0667 15.9036 36.9552 16.2227C36.1659 17.1256 35.4824 18.0572 34.9161 18.9974C38.2822 18.4597 41.8112 18.0629 45.4147 17.8214V17.8243ZM60.6978 14.4774C61.0925 14.1726 61.5214 13.8765 61.9733 13.5947C58.9533 12.643 55.9847 11.8781 53.1392 11.3146C52.2955 11.8091 51.4948 12.3353 50.7512 12.8845C53.9485 13.2238 57.2946 13.7615 60.7007 14.4803L60.6978 14.4774ZM62.6111 13.2094C63.1573 12.896 63.7264 12.6027 64.3127 12.3353C61.776 11.1823 59.2621 10.2133 56.8398 9.45135C55.8046 9.8999 54.8093 10.383 53.8827 10.8919C56.6968 11.4756 59.6311 12.2548 62.6139 13.2094H62.6111ZM73.9676 16.5994C71.7826 14.7764 69.6034 13.1318 67.49 11.7142C66.8723 11.9098 66.266 12.1225 65.6854 12.3525C68.2993 13.5947 70.9962 15.0582 73.7102 16.7C73.7931 16.6655 73.8818 16.6339 73.9676 16.5994ZM73.6988 22.4996C73.7617 22.5254 73.8246 22.5513 73.8875 22.5772C74.1935 22.3328 74.5052 22.0855 74.8198 21.8382C74.4538 22.051 74.0791 22.2695 73.6988 22.4967V22.4996ZM73.9962 23.2126C71.4137 25.2886 68.8313 27.5371 66.3174 29.9006C66.9781 30.1422 67.6644 30.3636 68.3651 30.562C70.3213 28.0317 72.3317 25.5992 74.3422 23.3334C74.2278 23.296 74.1106 23.2558 73.9962 23.2155V23.2126ZM65.8656 30.3233C63.4233 32.638 61.0124 35.0906 58.6988 37.618C59.8799 38.0608 61.1268 38.4634 62.4109 38.8228C64.204 36.1545 66.0829 33.5351 67.999 31.0364C67.2698 30.8236 66.5519 30.585 65.8656 30.3233ZM58.2955 38.0579C56.0334 40.548 53.8513 43.1214 51.8008 45.7178C53.4623 46.3475 55.2154 46.9197 57.02 47.4229C58.6044 44.7028 60.3089 41.9741 62.0848 39.3116C60.775 38.9407 59.5024 38.518 58.2984 38.0608L58.2955 38.0579ZM45.3947 54.5364C43.653 57.1558 42.0572 59.781 40.6416 62.34C43.0896 63.2803 45.6778 64.1342 48.3403 64.8818C49.4385 62.202 50.6768 59.459 52.021 56.7245C49.7274 56.0805 47.4995 55.3444 45.3918 54.5364H45.3947ZM40.3756 62.8288C38.96 65.4253 37.7159 67.9929 36.6749 70.4686C39.4118 71.5238 42.306 72.4813 45.2831 73.3123C46.081 70.7647 47.0391 68.1022 48.1316 65.3965C45.4519 64.6432 42.8437 63.7806 40.3756 62.826V62.8288ZM36.4604 70.9804C35.4309 73.479 34.6015 75.9029 33.9924 78.1888C36.9266 79.3159 40.0324 80.3367 43.2269 81.2252C43.693 78.8904 44.3279 76.409 45.1144 73.8442C42.123 73.0046 39.2116 72.0414 36.4576 70.9804H36.4604ZM28.2984 67.3028C27.0744 69.7354 26.082 72.0931 25.347 74.3158C27.8808 75.6355 30.612 76.869 33.469 77.9847C34.081 75.6959 34.9104 73.272 35.9399 70.7762C33.2545 69.7181 30.6835 68.5507 28.2984 67.3028ZM21.6263 63.2918C20.2107 65.592 19.0667 67.8607 18.2231 70.0401C20.2593 71.4519 22.4843 72.8005 24.8437 74.0541C25.5844 71.8315 26.5796 69.4737 27.8008 67.0441C25.6044 65.8738 23.5281 64.6115 21.6234 63.2918H21.6263ZM17.531 46.8363C15.2517 48.8576 13.2669 50.8934 11.6254 52.8917C12.7522 54.522 14.1077 56.1265 15.6549 57.6648C17.2736 55.468 19.1325 53.2741 21.1859 51.1378C19.7903 49.7576 18.5634 48.3113 17.531 46.8363ZM17.2135 46.3705C16.2069 44.8667 15.3889 43.3111 14.7826 41.7441C12.4404 43.5383 10.3813 45.3986 8.66254 47.2762C9.31172 49.0129 10.1983 50.7381 11.3022 52.4087C12.9523 50.4132 14.9399 48.3832 17.2135 46.3734V46.3705ZM22.53 30.769C25.5586 29.363 28.8332 28.0604 32.2621 26.8931C32.2507 26.6458 32.2421 26.433 32.2421 26.2317C32.2421 25.3634 32.3308 24.4807 32.5081 23.6008C29.1849 24.4663 25.959 25.4813 22.919 26.6199C22.653 27.793 22.5157 28.9834 22.5157 30.1594C22.5157 30.3521 22.5186 30.5533 22.53 30.769ZM45.6578 15.2451C46.1983 15.2451 46.7417 15.2509 47.2879 15.2595C47.8856 14.5924 48.5691 13.9397 49.3213 13.31C46.204 13.0311 43.1811 12.9362 40.3327 13.0311C39.2917 13.8621 38.3422 14.7304 37.51 15.6132C40.101 15.3688 42.8322 15.2451 45.6578 15.2451ZM49.9533 12.804C50.6854 12.2347 51.4862 11.6826 52.3384 11.1622C49.6215 10.6561 46.9876 10.3312 44.4995 10.1932C43.2898 10.9005 42.1459 11.6567 41.0906 12.4474C43.9104 12.3871 46.8875 12.5078 49.9533 12.804ZM66.9009 11.3261C64.8818 10.0034 62.8885 8.86191 60.9695 7.9303C59.817 8.29259 58.7045 8.68939 57.6578 9.11494C60.0429 9.8999 62.511 10.8833 65.0076 12.0391C65.6254 11.7804 66.2602 11.5388 66.9009 11.3261ZM69.8008 10.521C68.3394 9.07468 66.8923 7.80666 65.4938 6.74855C64.224 7.0217 62.9743 7.33511 61.7731 7.68878C63.6606 8.64051 65.6168 9.79064 67.5929 11.1104C68.3079 10.8919 69.0515 10.6935 69.8008 10.5238V10.521ZM74.3136 17.071C74.5682 17.2291 74.8255 17.3872 75.0801 17.5454C74.8713 17.3671 74.6683 17.1917 74.4623 17.0192C74.4109 17.0364 74.3622 17.0537 74.3108 17.071H74.3136ZM74.511 22.8072C74.5882 22.8331 74.6683 22.8561 74.7483 22.8791C75.0086 22.5887 75.2803 22.2897 75.5634 21.9791C75.2088 22.2552 74.857 22.5312 74.511 22.8072ZM68.5853 31.2003C66.6663 33.6961 64.7846 36.3126 62.9828 38.9838C64.3327 39.3432 65.7369 39.6566 67.1611 39.9154C68.3994 37.1062 69.6892 34.3631 70.9905 31.7524C70.1697 31.5971 69.3603 31.4131 68.5853 31.2032V31.2003ZM57.2917 48.0756C55.7102 50.81 54.2088 53.5991 52.8274 56.3709C55.1868 57.0121 57.6463 57.5641 60.1401 58.0156C61.0925 55.1776 62.1335 52.2879 63.2374 49.4212C61.2069 49.0503 59.2078 48.596 57.2917 48.0756ZM52.5758 56.8798C51.2288 59.6114 49.9905 62.3544 48.8894 65.0342C51.6292 65.7818 54.4833 66.4287 57.3832 66.9578C58.1468 64.2291 59.0133 61.4027 59.96 58.5532C57.4376 58.0932 54.9552 57.5325 52.5758 56.8798ZM33.858 78.7294C33.2717 81.0383 32.897 83.2379 32.7455 85.2679C35.7569 86.4352 38.9542 87.4934 42.2545 88.4135C42.3832 86.3662 42.6749 84.135 43.1268 81.7715C39.9266 80.883 36.8093 79.8594 33.858 78.7265V78.7294ZM25.1811 74.8477C24.4719 77.0933 24.0172 79.2412 23.8284 81.2395C26.4452 82.6139 29.2621 83.8963 32.2021 85.0551C32.368 83.0222 32.7483 80.8255 33.3346 78.5252C30.4719 77.4067 27.7293 76.1703 25.184 74.8477H25.1811ZM15.7436 58.513C14.1878 60.681 12.9352 62.8576 12.0114 64.9853C13.7045 66.6214 15.6377 68.2114 17.7569 69.7152C18.6091 67.5357 19.7588 65.27 21.1716 62.9726C19.1754 61.5579 17.3508 60.057 15.7407 58.513H15.7436ZM14.5853 41.1949C14.0248 39.6135 13.6644 37.9976 13.5186 36.3845C11.1792 37.9343 9.11154 39.6164 7.36415 41.3818C7.49286 43.1588 7.85892 44.9415 8.45377 46.681C10.1868 44.8178 12.2488 42.9719 14.5853 41.1949ZM14.0105 35.3954C16.4156 33.8628 19.0982 32.3936 21.9895 31.0278C21.9724 30.7029 21.9638 30.424 21.9638 30.1594C21.9638 29.0668 22.0782 27.9569 22.3041 26.8557C19.4414 27.9598 16.8017 29.2163 14.4538 30.5907C14.1478 31.945 13.9933 33.3165 13.9933 34.6708C13.9933 34.9008 13.999 35.1395 14.0105 35.3954ZM32.6482 22.9884C32.9199 21.8986 33.3289 20.8089 33.8723 19.7508C30.6292 20.3114 27.5519 21.0562 24.7207 21.959C24.0029 23.2673 23.4538 24.6101 23.0877 25.9615C26.1306 24.8372 29.3451 23.8366 32.6482 22.9884ZM34.2154 19.1211C34.756 18.1665 35.4109 17.2233 36.1659 16.3147C33.1487 16.6569 30.2745 17.1773 27.6206 17.8617C26.6625 18.96 25.8275 20.0958 25.1354 21.243C27.9552 20.3718 31.0067 19.6587 34.2154 19.1239V19.1211ZM53.0648 10.7337C54.0029 10.1932 55.001 9.68138 56.0419 9.2127C53.7655 8.537 51.5348 8.03669 49.4042 7.72616C48 8.33572 46.653 8.99705 45.3918 9.69288C47.8341 9.86827 50.4137 10.2191 53.0648 10.7337ZM66.2717 6.5904C67.6416 7.66865 69.0543 8.94242 70.4785 10.3772C71.3079 10.2076 72.1659 10.0638 73.0353 9.94878C72.1716 8.42486 71.305 7.07058 70.4614 5.92045C69.0486 6.09297 67.6416 6.31725 66.2717 6.5904ZM70.2726 10.9925C69.5605 11.1449 68.8599 11.3203 68.1907 11.513C70.2841 12.942 72.4404 14.5867 74.5996 16.401C74.7254 16.3636 74.8541 16.3291 74.98 16.2975C73.3928 14.3308 71.8112 12.5481 70.2726 10.9896V10.9925ZM74.9399 23.5117C72.9266 25.7688 70.9161 28.1956 68.9542 30.7259C69.6949 30.9185 70.4671 31.0882 71.2507 31.2348C72.6235 28.5061 74.0019 25.9442 75.3546 23.6094C75.2174 23.5807 75.0801 23.5462 74.9428 23.5117H74.9399ZM62.6568 39.4755C60.8808 42.1323 59.1764 44.8581 57.5834 47.5839C59.4709 48.0928 61.4414 48.5327 63.4433 48.8979C64.5472 46.0513 65.7197 43.2105 66.9323 40.4473C65.4766 40.177 64.0381 39.8521 62.6568 39.4783V39.4755ZM48.6806 65.5575C47.5853 68.2603 46.6273 70.9229 45.8294 73.4704C48.8637 74.3014 52.0267 75.0173 55.2412 75.6039C55.7989 73.0161 56.4681 70.2932 57.2374 67.5041C54.3146 66.9693 51.4376 66.3166 48.6806 65.5575ZM45.6635 74.0023C44.877 76.5671 44.2421 79.0485 43.776 81.3833C47.0076 82.2631 50.3823 83.0222 53.8084 83.6433C54.1316 81.2769 54.5748 78.7581 55.1239 76.1531C51.8923 75.5636 48.7092 74.8419 45.6606 74.0052L45.6635 74.0023ZM64.7445 93.0514C61.0038 92.7063 57.2774 92.2118 53.6625 91.5734C53.5996 93.589 53.6511 95.435 53.817 97.0624C57.4147 97.7065 61.1211 98.2097 64.8332 98.5605C64.7359 96.9302 64.7073 95.0785 64.7445 93.0514ZM53.2822 97.5369C49.7989 96.8985 46.3727 96.1222 43.0953 95.2251C43.3556 96.7116 43.7617 98.0429 44.3022 99.1902C47.4538 100.053 50.734 100.803 54.0572 101.421C53.7083 100.3 53.4452 98.9947 53.2822 97.5369ZM42.2231 88.9943C38.9256 88.077 35.7254 87.0218 32.7054 85.8602C32.5968 87.8269 32.6997 89.6671 33.0086 91.3319C35.9971 92.4907 39.1544 93.5402 42.4032 94.4545C42.1859 92.807 42.1258 90.9725 42.2202 88.9943H42.2231ZM32.1592 85.6503C29.2278 84.5001 26.4109 83.2235 23.7769 81.852C23.6425 83.7928 23.7598 85.6301 24.1258 87.318C26.7026 88.6694 29.4824 89.9403 32.3994 91.0933C32.1192 89.4285 32.0391 87.5997 32.1592 85.6503ZM11.2736 53.346C9.64061 55.3961 8.31935 57.4807 7.347 59.5452C8.53099 61.2589 9.95518 62.9467 11.5825 64.5684C12.5205 62.4464 13.7817 60.2813 15.3346 58.1248C13.7817 56.5894 12.4175 54.985 11.2707 53.3489L11.2736 53.346ZM4.18683 53.5214C4.87035 55.376 5.81125 57.2191 6.98665 59.0018C7.98189 56.9517 9.31172 54.8872 10.9418 52.8601C9.82364 51.1953 8.91992 49.4758 8.24785 47.7449C6.57196 49.6369 5.20781 51.5777 4.18683 53.5214ZM22.4528 26.203C22.7845 24.8573 23.2936 23.5174 23.9628 22.212C21.2231 23.1321 18.6749 24.2219 16.3756 25.4554C15.6206 26.8873 15.04 28.3595 14.6425 29.8403C16.9933 28.4975 19.6187 27.2755 22.45 26.203H22.4528ZM36.7007 15.7023C37.5043 14.8023 38.4223 13.9196 39.4318 13.0743C37.653 13.1576 35.9342 13.3158 34.3098 13.5429C33.4433 13.6637 32.571 13.8103 31.7159 13.9771C30.449 14.9921 29.2993 16.0502 28.2869 17.1256C30.9037 16.493 33.7321 16.0157 36.6978 15.7023H36.7007ZM56.857 8.85903C57.9352 8.40186 59.0734 7.97343 60.2459 7.58814C58.4528 6.76005 56.6997 6.10447 55.0295 5.64155C53.4423 6.14185 51.9009 6.69391 50.4452 7.28911C52.5014 7.64277 54.6549 8.16895 56.857 8.85903ZM61.0496 7.33224C62.285 6.94982 63.5806 6.60765 64.9047 6.3115C63.6149 5.37989 62.3565 4.61218 61.1554 4.03424C59.408 4.40803 57.6949 4.84221 56.0534 5.32814C57.652 5.82844 59.3279 6.50127 61.0496 7.33224ZM70.7474 5.32526C72.306 5.14412 73.9047 5.02048 75.5005 4.95722C75.2803 3.93073 75.0629 3.06238 74.8541 2.36368C72.7579 2.44131 70.6559 2.59658 68.6025 2.82948C69.3003 3.51093 70.021 4.34765 70.7474 5.32526ZM94.9733 7.33224C96.6949 6.50127 98.3708 5.82844 99.9695 5.32814C98.3251 4.84221 96.612 4.40803 94.8646 4.03424C93.6663 4.61218 92.408 5.37989 91.1182 6.3115C92.4423 6.60765 93.7378 6.94982 94.9733 7.33224ZM95.7712 7.58814C96.9466 7.97343 98.0848 8.40186 99.163 8.85903C101.365 8.16895 103.519 7.64277 105.575 7.28911C104.119 6.69391 102.578 6.13898 100.982 5.63867C99.3146 6.10447 97.5615 6.76005 95.7683 7.58814H95.7712ZM121.707 13.5401C120.083 13.3129 118.361 13.1548 116.585 13.0714C117.595 13.9167 118.513 14.8023 119.316 15.7023C122.285 16.0157 125.111 16.493 127.727 17.1227C126.715 16.0445 125.565 14.9863 124.298 13.9742C123.443 13.8075 122.571 13.6608 121.707 13.5401ZM133.564 26.203C136.398 27.2755 139.021 28.4975 141.372 29.8403C140.974 28.3595 140.394 26.8873 139.639 25.4554C137.342 24.2219 134.791 23.1293 132.051 22.212C132.721 23.5174 133.23 24.8573 133.561 26.203H133.564ZM147.992 34.5385C147.578 32.9916 146.98 31.4562 146.211 29.961C144.572 28.509 142.656 27.1547 140.511 25.9356C141.192 27.3445 141.709 28.7879 142.052 30.2342C144.272 31.5511 146.268 33.0002 147.995 34.5414L147.992 34.5385ZM147.769 47.7449C147.097 49.4758 146.191 51.1953 145.075 52.8601C146.708 54.8872 148.038 56.9517 149.033 59.0018C150.209 57.2191 151.15 55.376 151.833 53.5214C150.812 51.5806 149.448 49.6369 147.772 47.7478L147.769 47.7449ZM138.46 70.2443C139.255 72.3835 139.779 74.4739 140.016 76.4636C142.158 74.9368 144.117 73.318 145.836 71.6532C145.622 69.6664 145.081 67.6048 144.232 65.523C142.521 67.1591 140.58 68.7463 138.458 70.2414L138.46 70.2443ZM113.528 95.0583C113.294 96.5305 112.928 97.8589 112.439 99.0176C115.504 98.1579 118.481 97.1803 121.298 96.1078C122.002 94.8944 122.534 93.5057 122.877 91.976C119.894 93.1204 116.751 94.1555 113.528 95.0555V95.0583ZM91.1497 99.1269C91.0467 100.593 90.8837 101.899 90.6664 103.006C94.2383 102.666 97.8103 102.181 101.291 101.557C101.674 100.441 101.96 99.1269 102.14 97.6404C98.5481 98.2787 94.8503 98.779 91.1497 99.124V99.1269ZM100.23 75.6988C99.6721 73.1024 99 70.3794 98.2307 67.599C95.2536 68.1281 92.1764 68.5392 89.0734 68.8296C89.4538 71.5612 89.7998 74.3273 90.1001 77.0531C93.5319 76.7368 96.938 76.2796 100.23 75.6988ZM95.3222 58.1162C94.3699 55.2782 93.326 52.3885 92.2221 49.5247C90.1659 49.8841 88.0438 50.1688 85.9104 50.3672C86.5167 53.3719 87.0572 56.2472 87.5577 59.1484C90.183 58.9069 92.7941 58.559 95.3222 58.1191V58.1162ZM81.6635 31.6632C82.5214 31.5827 83.3737 31.4706 84.1945 31.3354C82.8217 28.6096 81.4404 26.0506 80.082 23.7187C79.8875 23.7503 79.6845 23.7791 79.4785 23.8021C80.285 26.6055 81.02 29.2479 81.6635 31.6632ZM84.7693 31.2319C85.5529 31.0882 86.3251 30.9156 87.0658 30.723C85.1039 28.1927 83.0906 25.7659 81.0801 23.5088C80.9428 23.5433 80.8055 23.5778 80.6683 23.6066C82.021 25.9413 83.3994 28.5032 84.7722 31.2319H84.7693ZM81.5091 22.8101C81.163 22.5369 80.8141 22.2609 80.4566 21.9849C80.7398 22.2954 81.0114 22.5916 81.2717 22.882C81.3518 22.859 81.4318 22.836 81.5091 22.8101ZM80.654 16.7805C80.4337 17.0566 80.2078 17.3441 79.979 17.6403C80.285 17.3729 80.5939 17.1055 80.9056 16.8409C80.8227 16.8208 80.7398 16.8007 80.654 16.7805ZM79.6702 16.608C79.4986 16.9962 79.3241 17.3959 79.1497 17.8013C79.4442 17.416 79.7388 17.0365 80.0362 16.6627C79.9161 16.6425 79.796 16.6253 79.673 16.608H79.6702ZM79.327 16.0013C80.2478 13.9484 81.1744 12.0679 82.081 10.406C81.266 10.3197 80.4252 10.2593 79.5701 10.2248C79.3041 11.927 79.0324 13.8535 78.7607 15.9553C78.9523 15.9668 79.1439 15.9812 79.327 15.9985V16.0013ZM79.0896 9.64687C79.3384 8.08845 79.5872 6.69391 79.8303 5.4949C78.592 5.4604 77.4423 5.45753 76.1954 5.4949C76.4385 6.69104 76.6873 8.08845 76.9361 9.64687C77.6511 9.62674 78.3775 9.62674 79.0925 9.64687H79.0896ZM73.3327 10.4807C72.5234 10.5814 71.7226 10.7079 70.9476 10.8574C72.4719 12.4273 74.0334 14.2129 75.5948 16.1652C75.7636 16.1336 75.9352 16.102 76.1153 16.0761C75.1859 14.0202 74.2507 12.1398 73.3327 10.4807ZM75.1172 16.8409C75.429 17.1055 75.7378 17.3729 76.0439 17.6403C75.8151 17.3441 75.5891 17.0595 75.3689 16.7805C75.2831 16.8007 75.2002 16.8179 75.1172 16.8409ZM75.3661 23.0401C75.4604 23.0603 75.5577 23.0804 75.6549 23.1005C75.8694 22.7353 76.0839 22.3759 76.2955 22.0223C75.9695 22.3759 75.6635 22.7123 75.3661 23.0401ZM74.3594 31.6661C75.1601 28.6643 75.9809 25.7659 76.5443 23.805C76.3384 23.782 76.1354 23.7532 75.9409 23.7216C74.5882 26.0477 73.204 28.6096 71.8284 31.3383C72.6492 31.4763 73.4986 31.5856 74.3594 31.6661ZM71.5682 31.8587C70.2669 34.4609 68.98 37.204 67.7331 40.016C69.183 40.2633 70.6759 40.4588 72.1745 40.5997C72.6263 38.4317 73.3127 35.6139 74.2135 32.2124C73.3155 32.1233 72.4261 32.0054 71.5682 31.8559V31.8587ZM63.8008 49.5247C62.6997 52.3828 61.6559 55.2725 60.7007 58.1162C63.2288 58.559 65.8399 58.904 68.4652 59.1455C68.9685 56.2386 69.509 53.3633 70.1125 50.3643C67.9762 50.163 65.8541 49.8813 63.8008 49.5218V49.5247ZM60.5205 58.6539C59.5739 61.5004 58.7045 64.3269 57.9409 67.0584C60.8951 67.5789 63.9495 67.9872 67.0238 68.2718C67.4242 65.4454 67.8761 62.5643 68.368 59.7034C65.714 59.4561 63.0744 59.1024 60.5205 58.6539ZM57.7893 67.599C57.0229 70.3766 56.3508 73.0995 55.7903 75.6988C59.0791 76.2825 62.4852 76.7368 65.9199 77.0531C66.2202 74.3244 66.5634 71.5583 66.9466 68.8296C63.8437 68.5421 60.7636 68.1281 57.7893 67.599ZM54.286 84.2902C53.9714 86.7026 53.7683 88.9598 53.6826 91.0041C57.2946 91.6424 61.021 92.1399 64.756 92.4849C64.8074 90.4348 64.9247 88.1633 65.1106 85.7308C61.4414 85.3944 57.8036 84.9084 54.286 84.2902ZM53.8799 97.6432C54.0601 99.1212 54.346 100.432 54.7235 101.542C58.204 102.169 61.7788 102.658 65.3508 103C65.1335 101.893 64.9704 100.59 64.8675 99.1269C61.1697 98.7819 57.4719 98.2816 53.877 97.6432H53.8799ZM33.143 91.9789C33.4833 93.4884 34.0038 94.8599 34.693 96.0618C37.5157 97.1401 40.4986 98.1234 43.5672 98.986C43.0839 97.8359 42.7235 96.5161 42.4919 95.0583C39.2688 94.1584 36.1258 93.1232 33.143 91.9789ZM23.2393 81.5673C20.8255 80.2849 18.5462 78.9105 16.4642 77.4757C16.3213 79.3965 16.4557 81.228 16.8589 82.9273C18.8923 84.3449 21.123 85.7078 23.4852 86.9787C23.1678 85.2966 23.0848 83.4794 23.2364 81.5673H23.2393ZM7.08104 60.126C6.20305 62.1215 5.63966 64.1256 5.39943 66.0866C6.60057 67.8147 8.03336 69.514 9.66348 71.1471C9.92946 69.1862 10.4957 67.1562 11.3508 65.1118C9.72639 63.5132 8.29076 61.8369 7.08104 60.126ZM8.02765 47.1526C7.41278 45.4331 7.0181 43.6763 6.84937 41.9224C5.21924 43.6533 3.87511 45.4791 2.85127 47.3596C2.97711 49.1912 3.34319 51.0256 3.93518 52.8141C4.98761 50.9106 6.3632 49.0072 8.02765 47.1555V47.1526ZM7.32126 40.6371C9.08293 38.9062 11.1478 37.2615 13.47 35.7462C13.4471 35.3408 13.4357 35.0015 13.4357 34.6766C13.4357 33.4517 13.5586 32.2153 13.7988 30.9904C11.5253 32.3763 9.5062 33.8973 7.78741 35.5161C7.4671 36.9826 7.30696 38.4662 7.30696 39.924C7.30696 40.1569 7.31267 40.3898 7.32126 40.6371ZM15.9581 25.0442C16.633 23.7877 17.4509 22.5341 18.4004 21.3149C15.9094 22.6203 14.2679 23.8797 13.3184 24.7193C12.2717 25.9787 11.3508 27.2755 10.5729 28.5895C12.1687 27.3129 13.9762 26.1225 15.9609 25.0442H15.9581ZM24.3518 21.4932C25.0038 20.3402 25.7874 19.2044 26.6854 18.1118C24.123 18.822 21.7436 19.6961 19.6072 20.7111C18.5548 21.9561 17.6368 23.25 16.8703 24.5612C19.1468 23.3938 21.6606 22.3644 24.3489 21.4932H24.3518ZM20.5081 19.6904C22.5901 18.7846 24.8808 18.0026 27.326 17.3642C28.2841 16.2831 29.3708 15.225 30.5634 14.2129C28.2612 14.7247 26.1335 15.386 24.2374 16.1854C22.8675 17.3125 21.6149 18.4885 20.511 19.6904H20.5081ZM34.204 12.988C36.0743 12.7263 38.0763 12.5538 40.1554 12.4819C41.1764 11.6797 42.3031 10.8976 43.5129 10.1558C42.8122 10.1299 42.1287 10.1213 41.4795 10.1271C39.918 10.1386 38.3994 10.2277 36.9638 10.3973C35.4395 11.2858 34.001 12.2375 32.6797 13.2266C33.1945 13.1375 33.6978 13.0599 34.204 12.988ZM41.448 9.56349C41.571 9.56349 41.6911 9.56349 41.8141 9.56349C42.6492 9.56349 43.5129 9.58649 44.388 9.63249C45.632 8.91079 46.9647 8.22646 48.3575 7.59101C46.4671 7.36674 44.6597 7.29198 42.9781 7.37249C41.2993 8.09995 39.6892 8.88491 38.1792 9.71013C39.2402 9.62099 40.3356 9.57211 41.448 9.56349ZM67.2469 2.42694C66.5548 1.8835 66.0172 1.61322 65.6654 1.48095C63.4118 1.75411 61.1668 2.10777 58.979 2.53045C59.7226 2.74322 60.5062 3.04513 61.3127 3.42755C63.2345 3.02213 65.2278 2.68571 67.2469 2.42694ZM65.6854 6.14185C67.1153 5.84282 68.5882 5.59842 70.0724 5.40577C69.306 4.40803 68.551 3.57131 67.8275 2.91862C65.8999 3.15439 63.9809 3.46205 62.1163 3.83584C63.266 4.44829 64.4642 5.22175 65.6826 6.14185H65.6854ZM74.6711 1.80874C74.4881 1.27681 74.3451 0.977773 74.245 0.813879C71.7226 0.903014 69.2002 1.08703 66.7378 1.35732C67.1582 1.60747 67.5987 1.93238 68.0505 2.32917C70.2183 2.0704 72.4433 1.89788 74.6683 1.81162L74.6711 1.80874ZM75.2602 1.78861C76.204 1.75699 77.1277 1.74261 78.0057 1.74261C78.8837 1.74261 79.8074 1.75699 80.7541 1.78861C80.8885 1.38607 81.02 1.05253 81.1459 0.793752C80.0677 0.762124 79.0124 0.744872 78.0057 0.744872C76.999 0.744872 75.9581 0.762124 74.8684 0.793752C74.9971 1.05541 75.1258 1.38894 75.2602 1.78861ZM87.9609 2.32917C88.4128 1.93526 88.8532 1.61034 89.2736 1.35732C86.8112 1.08703 84.2888 0.903014 81.7664 0.813879C81.6663 0.980648 81.5234 1.27681 81.3403 1.80874C83.5682 1.895 85.7931 2.0704 87.9581 2.3263L87.9609 2.32917ZM85.939 5.40864C87.4261 5.59842 88.9018 5.84569 90.3289 6.14473C91.55 5.22462 92.7455 4.45116 93.8951 3.83872C92.0276 3.46493 90.1087 3.15727 88.1811 2.92149C87.4576 3.57419 86.7054 4.41091 85.9361 5.40864H85.939ZM94.7016 3.43042C95.5081 3.04801 96.2888 2.7461 97.0324 2.53045C94.8418 2.1049 92.5939 1.75123 90.3403 1.47808C89.9914 1.61322 89.4538 1.8835 88.7617 2.42694C90.7807 2.68859 92.7769 3.025 94.7016 3.43042ZM107.654 7.59101C109.05 8.22934 110.385 8.91654 111.632 9.63825C112.627 9.58361 113.614 9.56061 114.566 9.56636C115.676 9.57499 116.771 9.62387 117.832 9.713C116.322 8.88491 114.709 8.09995 113.033 7.37537C111.352 7.29486 109.544 7.36674 107.654 7.59389V7.59101ZM114.535 10.1271C113.886 10.1213 113.205 10.1328 112.501 10.1587C113.708 10.9005 114.835 11.6797 115.853 12.4819C117.932 12.5567 119.934 12.7263 121.805 12.988C122.311 13.0599 122.814 13.1375 123.329 13.2266C122.01 12.2375 120.572 11.2858 119.048 10.3973C117.612 10.2277 116.093 10.1386 114.535 10.1271ZM128.685 17.3642C131.131 18.0026 133.421 18.7818 135.503 19.6875C134.397 18.4885 133.147 17.3096 131.774 16.1825C129.878 15.3831 127.753 14.7218 125.448 14.21C126.641 15.2221 127.727 16.2802 128.685 17.3642ZM129.326 18.1118C130.224 19.2044 131.008 20.3402 131.66 21.4932C134.348 22.3644 136.862 23.3967 139.138 24.5612C138.375 23.25 137.454 21.9561 136.401 20.7111C134.265 19.6961 131.888 18.822 129.323 18.1118H129.326ZM145.441 28.5895C144.661 27.2755 143.74 25.9758 142.704 24.7308C141.741 23.8768 140.096 22.6175 137.611 21.3149C138.561 22.5369 139.378 23.7877 140.053 25.0442C142.038 26.1225 143.846 27.3129 145.441 28.5895ZM142.213 30.9875C142.453 32.2124 142.576 33.4517 142.576 34.6766C142.576 35.0015 142.564 35.3408 142.541 35.7462C144.864 37.2643 146.931 38.9062 148.69 40.6371C148.699 40.3898 148.704 40.1569 148.704 39.9269C148.704 38.4662 148.541 36.9826 148.224 35.5161C146.505 33.8973 144.486 32.3763 142.213 30.9904V30.9875ZM149.162 41.9195C148.993 43.6763 148.596 45.4331 147.984 47.1526C149.651 49.0043 151.027 50.9049 152.079 52.8112C152.671 51.0228 153.037 49.1912 153.163 47.3567C152.136 45.4763 150.792 43.6504 149.165 41.9195H149.162ZM150.698 66.9377C149.485 68.614 148.05 70.2673 146.431 71.8516C146.608 73.6487 146.534 75.394 146.211 77.0387C147.738 75.4946 149.096 73.8873 150.249 72.257C150.684 70.5692 150.832 68.7808 150.695 66.9377H150.698ZM139.55 77.4729C137.468 78.9076 135.189 80.2821 132.775 81.5644C132.927 83.4737 132.844 85.2937 132.526 86.9758C134.891 85.7049 137.119 84.342 139.153 82.9245C139.559 81.2252 139.69 79.3936 139.547 77.4729H139.55ZM112.13 99.6847C112.007 99.932 111.884 100.162 111.761 100.375C111.412 100.973 111.017 101.513 110.585 101.994C113.231 101.252 115.813 100.412 118.273 99.4978C118.942 99.0263 119.894 98.2068 120.795 96.8957C118.035 97.9221 115.124 98.8595 112.13 99.6876V99.6847ZM111.349 99.8975C108.246 100.728 105.017 101.45 101.743 102.048C101.422 102.922 101.036 103.681 100.596 104.302C103.599 103.748 106.567 103.08 109.418 102.313C110.159 101.68 110.806 100.866 111.349 99.8975ZM90.0858 103.06C90.3089 101.968 90.4776 100.662 90.5863 99.1787C86.5367 99.541 82.3985 99.7279 78.2803 99.7365V103.607C82.204 103.598 86.1764 103.414 90.0858 103.06ZM90.6234 98.6122C90.7207 96.9819 90.7521 95.1302 90.7121 93.1002C86.6225 93.4597 82.4414 93.6465 78.2803 93.6523V99.1729C82.4099 99.1643 86.5596 98.9774 90.6234 98.6122ZM90.7007 92.5367C90.6492 90.4779 90.5319 88.2064 90.3489 85.7825C86.3708 86.1305 82.3127 86.3116 78.2831 86.3202V93.0916C82.4385 93.083 86.6168 92.8961 90.7035 92.5367H90.7007ZM89.5396 77.1048C89.2421 74.3848 88.8961 71.6216 88.5129 68.8814C85.1382 69.1776 81.6978 69.3328 78.2831 69.3414V77.608C82.0438 77.5994 85.8303 77.4297 89.5396 77.1048ZM86.9943 59.2002C86.4909 56.2932 85.9504 53.4179 85.3441 50.4218C83.0162 50.6231 80.6425 50.7295 78.2831 50.7381V59.5912C81.1945 59.5826 84.123 59.4532 86.9943 59.2031V59.2002ZM85.2326 49.8669C84.7178 47.3308 84.2402 45.1284 83.8913 43.5124L83.8799 43.4549C83.6911 42.5779 83.5281 41.8246 83.3994 41.2064C81.715 41.3502 79.9962 41.4278 78.286 41.4336V50.1717C80.6053 50.163 82.939 50.0624 85.2326 49.864V49.8669ZM83.2822 40.6544C82.8275 38.4806 82.1382 35.6628 81.2402 32.2699C80.2679 32.3504 79.2755 32.3964 78.286 32.4022V40.8729C79.959 40.8642 81.6377 40.7924 83.2822 40.6544ZM81.0915 31.7207C80.4423 29.294 79.7073 26.6515 78.9037 23.8596C78.7007 23.874 78.4919 23.8826 78.2831 23.8855V31.8415C79.224 31.8357 80.1678 31.7955 81.0915 31.7207ZM79.7703 23.204C79.4585 22.675 79.1525 22.1632 78.8522 21.6715C78.9866 22.1344 79.1439 22.6692 79.3127 23.2586C79.4671 23.2414 79.6215 23.2241 79.7703 23.204ZM80.6511 23.043C80.3565 22.7152 80.0477 22.3788 79.7216 22.0251C79.9361 22.3788 80.1478 22.7411 80.3622 23.1034C80.4595 23.0833 80.5567 23.0631 80.6511 23.043ZM79.0782 16.5476C78.9466 16.5361 78.8151 16.5275 78.6835 16.5218C78.6292 16.9473 78.5748 17.3815 78.5205 17.83C78.7064 17.3959 78.8923 16.9674 79.0782 16.5476ZM76.45 10.2306C75.592 10.2651 74.7512 10.3254 73.939 10.4117C74.8456 12.0736 75.7722 13.9541 76.693 16.0071C76.8732 15.9898 77.0648 15.9755 77.2593 15.964C76.9905 13.8678 76.7188 11.9414 76.45 10.2334V10.2306ZM75.9866 16.6655C76.2841 17.0422 76.5786 17.4217 76.8732 17.8042C76.6988 17.3987 76.5243 16.9991 76.3527 16.6109C76.2297 16.6282 76.1068 16.6454 75.9895 16.6655H75.9866ZM67.4986 40.5508C66.2803 43.3255 65.1049 46.1663 64.0038 48.9985C66.0315 49.3493 68.122 49.6254 70.2212 49.8209C70.7445 47.2475 71.225 45.022 71.5767 43.3945C71.7655 42.5262 71.9256 41.7786 72.0543 41.1604C70.5157 41.0138 68.9828 40.8096 67.4957 40.5508H67.4986ZM55.673 76.2537C55.1239 78.8588 54.6835 81.3775 54.3575 83.7439C57.8637 84.3621 61.4928 84.8452 65.1506 85.1816C65.3451 82.7031 65.5825 80.1613 65.857 77.6195C62.4051 77.3003 58.979 76.8403 55.673 76.2537ZM54.2631 102.037C50.9857 101.436 47.7541 100.708 44.6454 99.8716C45.1773 100.832 45.8122 101.637 46.5357 102.27C49.4013 103.046 52.3813 103.725 55.4013 104.288C54.9638 103.664 54.5806 102.908 54.2631 102.037ZM44.2507 100.381C44.122 100.159 43.9933 99.9176 43.8675 99.6617C40.8732 98.8336 37.9533 97.8876 35.1821 96.8554C36.0429 98.1206 36.9523 98.9314 37.5929 99.4029C40.081 100.335 42.6978 101.191 45.3775 101.95C44.9628 101.485 44.5853 100.958 44.2507 100.383V100.381ZM32.5195 91.746C29.6339 90.616 26.8684 89.3709 24.2974 88.0397C24.3804 88.3502 24.469 88.6521 24.5634 88.9368C24.9609 90.1415 25.51 91.2715 26.1935 92.2894C28.5929 93.5258 31.1783 94.6932 33.8894 95.757C33.2774 94.5552 32.817 93.2066 32.5195 91.7431V91.746ZM15.9323 77.1163C13.796 75.6096 11.8341 74.0138 10.0982 72.3634C9.97807 73.942 10.0639 75.4745 10.347 76.9237C10.3985 77.1911 10.4642 77.4757 10.5443 77.7834C12.2202 79.3964 14.1163 80.9664 16.184 82.4529C15.8494 80.7737 15.7664 78.9795 15.9352 77.1163H15.9323ZM6.70924 59.597C5.52525 57.843 4.56149 56.0316 3.84366 54.2057C2.93709 56.0776 2.33937 57.9609 2.06767 59.8069C2.77121 61.696 3.73213 63.5764 4.9304 65.3994C5.22783 63.4873 5.82553 61.5349 6.70924 59.597ZM0.666336 53.7399C0.82077 55.399 1.16682 57.0724 1.69591 58.72C2.05624 56.9833 2.68828 55.2265 3.5777 53.4869C2.96568 51.779 2.56244 50.0337 2.36797 48.2941C1.24976 50.5943 0.823624 52.5064 0.666336 53.7399ZM2.79694 46.3274C3.85796 44.5475 5.19923 42.8166 6.78932 41.1805C6.76073 40.709 6.74641 40.3093 6.74641 39.9326C6.74641 38.6934 6.85796 37.4455 7.0753 36.2177C5.56816 37.7388 4.31554 39.3346 3.35461 40.9706C2.97998 42.5923 2.79123 44.2485 2.79123 45.8932C2.79123 46.0312 2.79123 46.175 2.79694 46.3274ZM9.35175 29.6246C9.53479 29.2738 9.72639 28.923 9.92944 28.5722C9.48331 29.1387 9.05147 29.7109 8.63678 30.2859C8.86844 30.0645 9.10866 29.8431 9.35175 29.6246ZM31.4986 13.4509C32.7426 12.4618 34.1153 11.5043 35.5882 10.5929C32.8084 11.0328 31.0353 11.6682 30.2088 12.019C28.6215 12.9679 27.123 13.9714 25.7445 15.0093C27.5176 14.3797 29.448 13.8592 31.5014 13.4509H31.4986ZM48.3546 6.99295C48.6921 7.0332 49.0467 7.07921 49.4071 7.13096C50.877 6.49839 52.4271 5.9147 54.02 5.38564C52.5786 5.04348 51.2116 4.84508 49.9447 4.80195C48.0458 5.39427 46.204 6.04984 44.4623 6.7543C45.715 6.7543 47.0219 6.83481 48.3546 6.99007V6.99295ZM54.8723 4.99172L55.081 5.04923C56.7569 4.5288 58.51 4.06012 60.3003 3.65757C59.3165 3.24353 58.3899 2.96462 57.5377 2.82661C55.4871 3.26078 53.4623 3.76684 51.5033 4.33327C52.5786 4.45979 53.7083 4.68119 54.8723 4.99172ZM95.7112 3.65757C97.5043 4.06299 99.2602 4.5288 100.933 5.04923L101.142 4.99172C102.306 4.68119 103.436 4.45979 104.511 4.33327C102.549 3.76396 100.521 3.2579 98.4738 2.82661C97.6244 2.96462 96.6978 3.24353 95.714 3.65757H95.7112ZM101.983 5.38564C103.582 5.9147 105.132 6.50127 106.604 7.13096C106.968 7.07921 107.319 7.03033 107.66 6.99007C108.992 6.83481 110.296 6.7543 111.549 6.7543C109.805 6.04984 107.963 5.39427 106.058 4.79908C104.791 4.84508 103.424 5.0406 101.983 5.38277V5.38564ZM120.426 10.59C121.896 11.5015 123.269 12.4589 124.513 13.448C126.566 13.8535 128.497 14.3768 130.27 15.0036C128.888 13.9656 127.393 12.965 125.82 12.0219C124.976 11.6653 123.2 11.027 120.429 10.59H120.426ZM147.369 30.2658C146.954 29.6907 146.525 29.1214 146.079 28.5579C146.279 28.9058 146.474 29.2566 146.654 29.6074C146.897 29.8259 147.137 30.0444 147.369 30.2687V30.2658ZM149.262 39.9125C149.262 40.2892 149.248 40.686 149.219 41.1575C150.809 42.7965 152.151 44.5245 153.212 46.3044C153.214 46.1548 153.217 46.0111 153.217 45.8702C153.217 44.2255 153.026 42.5636 152.651 40.939C151.69 39.3058 150.44 37.71 148.933 36.1919C149.151 37.4225 149.262 38.6704 149.262 39.9096V39.9125ZM149.302 59.574C150.186 61.5148 150.784 63.4643 151.081 65.3764C152.276 63.5505 153.24 61.673 153.944 59.7839C153.672 57.9379 153.074 56.0575 152.168 54.1856C151.45 56.0114 150.489 57.8229 149.302 59.5768V59.574ZM145.896 72.3577C144.163 73.9995 142.207 75.5924 140.079 77.0933C140.248 78.9565 140.162 80.7507 139.83 82.4299C141.881 80.9549 143.763 79.3993 145.43 77.8006C145.873 76.0668 146.028 74.2381 145.896 72.3577ZM138.932 83.7353C136.896 85.1212 134.691 86.4467 132.375 87.6745C132.257 88.1777 132.123 88.6579 131.974 89.1035C131.66 90.0553 131.251 90.9639 130.762 91.8121C132.892 90.6735 134.894 89.4601 136.722 88.2036C137.66 86.924 138.38 85.4921 138.867 83.9452C138.889 83.8762 138.909 83.8043 138.929 83.7353H138.932ZM90.5377 103.569C90.3403 104.441 90.1001 105.182 89.8284 105.783C93.1459 105.47 96.4719 105.021 99.715 104.446C100.23 103.854 100.682 103.083 101.056 102.155C97.6101 102.761 94.0753 103.236 90.5377 103.569ZM78.2774 104.156V106.341C81.8923 106.332 85.5586 106.166 89.1792 105.844C89.4795 105.271 89.7426 104.527 89.9571 103.624C86.0848 103.969 82.1582 104.15 78.2774 104.156ZM78.7407 23.2874C78.5691 22.6951 78.4147 22.1632 78.2803 21.706V23.3047C78.4347 23.3018 78.5891 23.296 78.7407 23.2874ZM78.9895 10.1932C78.3346 10.1759 77.6654 10.1759 77.0105 10.1932C77.2765 11.9069 77.5481 13.8333 77.8141 15.9237C77.9371 15.9237 78.0629 15.9237 78.1859 15.9237C78.4519 13.8333 78.7235 11.9069 78.9895 10.1932ZM76.9276 16.5304C77.1134 16.9502 77.2993 17.3815 77.4852 17.8128C77.4309 17.3642 77.3765 16.9272 77.3222 16.5045C77.1907 16.5103 77.0591 16.5218 76.9276 16.5304ZM77.7197 21.706C77.5853 22.166 77.4309 22.698 77.2593 23.2874C77.4109 23.296 77.5653 23.3018 77.7197 23.3047V21.706ZM77.0991 23.8423C76.5357 25.7976 75.715 28.6988 74.9113 31.7035C75.8351 31.7782 76.776 31.8185 77.7169 31.8242V23.8682C77.5081 23.8653 77.2993 23.8538 77.0991 23.8423ZM74.7655 32.2555C73.8646 35.6484 73.1783 38.4662 72.7235 40.64C74.3708 40.778 76.0496 40.8527 77.7197 40.8585V32.3878C76.7331 32.382 75.7407 32.336 74.7655 32.2555ZM72.6092 41.192C72.4776 41.8217 72.3117 42.5923 72.1173 43.4952C71.7683 45.1025 71.2965 47.2935 70.776 49.8525C73.0639 50.048 75.4004 50.1515 77.7197 50.1602V41.4221C76.0095 41.4134 74.2907 41.3387 72.6092 41.1949V41.192ZM70.6616 50.4046C70.0553 53.4122 69.5148 56.2875 69.0114 59.1829C71.8827 59.4331 74.8084 59.5625 77.7169 59.5711V50.718C75.3603 50.7094 72.9867 50.603 70.6616 50.4017V50.4046ZM68.9171 59.7407C68.4252 62.6046 67.9733 65.4856 67.5729 68.3092C70.919 68.6025 74.3279 68.7549 77.7197 68.7635V60.1347C74.7826 60.126 71.8227 59.9938 68.9171 59.7407ZM67.4928 68.867C67.1096 71.5986 66.7664 74.3646 66.4662 77.0904C70.1783 77.4153 73.9619 77.585 77.7169 77.5936V69.3271C74.3022 69.3184 70.8646 69.1632 67.4928 68.867ZM66.4061 77.6482C66.1316 80.1987 65.8942 82.7404 65.6997 85.2075C69.6606 85.5554 73.7016 85.7337 77.7169 85.7423V78.1543C73.939 78.1457 70.1354 77.976 66.4061 77.6482ZM65.6568 85.7682C65.4738 88.1892 65.3537 90.4578 65.305 92.5223C69.3861 92.8817 73.5615 93.0686 77.7169 93.0772V86.3058C73.6902 86.2972 69.6349 86.1161 65.6568 85.7682ZM65.2908 93.0859C65.2536 95.1187 65.2822 96.9704 65.3794 98.5979C69.4376 98.963 73.5872 99.1528 77.714 99.1585V93.6379C73.5586 93.6293 69.3804 93.4453 65.2908 93.0859ZM65.4194 99.1643C65.5253 100.645 65.694 101.948 65.9171 103.04C69.8265 103.397 73.796 103.581 77.7169 103.589V99.7192C73.6072 99.7106 69.4719 99.5237 65.4194 99.1614V99.1643ZM65.4652 103.564C61.9304 103.23 58.3928 102.75 54.9438 102.137C55.3155 103.063 55.7617 103.834 56.2736 104.426C59.511 105.004 62.8427 105.458 66.1745 105.778C65.9028 105.177 65.6625 104.432 65.4652 103.564ZM24.0286 89.1007C23.8799 88.6521 23.7455 88.1719 23.6282 87.6716C21.3089 86.4439 19.1068 85.1212 17.0705 83.7353C17.0906 83.8072 17.1134 83.8762 17.1335 83.9423C17.6139 85.4634 18.3203 86.878 19.2383 88.1432C21.0715 89.3997 23.0791 90.6131 25.2069 91.7546C24.7321 90.9236 24.3346 90.0323 24.0257 89.1007H24.0286ZM9.79218 77.0243C9.46901 75.3796 9.39465 73.6372 9.57196 71.8401C7.95328 70.2529 6.52049 68.6025 5.30505 66.9262C5.16777 68.7721 5.3165 70.5606 5.75406 72.2484C6.90657 73.8787 8.26501 75.486 9.79218 77.0272V77.0243ZM2.27357 47.2158C2.24213 46.7012 2.22783 46.2727 2.22783 45.8673C2.22783 44.7977 2.30791 43.7194 2.46234 42.647C2.19066 43.245 2.01334 43.7338 1.90181 44.0789C1.27835 46.3647 0.866547 48.6938 0.680649 51.0199C1.06387 49.7576 1.59579 48.4839 2.27357 47.2187V47.2158ZM7.27264 35.2085C7.59294 33.791 8.06482 32.3763 8.67397 30.999C7.49857 32.1693 6.74643 33.1526 6.30887 33.7938C5.93994 34.4149 5.61963 34.9785 5.33078 35.5161C4.73021 36.7065 4.22974 37.9228 3.84081 39.1506C4.79886 37.7905 5.95139 36.4679 7.26978 35.2085H7.27264ZM19.2469 20.2453C20.1764 19.1527 21.2202 18.0773 22.3613 17.0393C21.9008 17.278 21.552 17.4821 21.3174 17.6259C19.4185 19.0319 17.6225 20.5156 15.9609 22.0481C16.9733 21.4098 18.0744 20.806 19.2498 20.2424L19.2469 20.2453ZM36.8093 9.83089C38.2278 9.00855 39.7464 8.22071 41.3308 7.4875C39.9409 7.64852 39.02 7.8843 38.5682 8.02231C36.6864 8.7929 34.8446 9.62387 33.0772 10.4922C34.2383 10.2104 35.4881 9.98903 36.8093 9.83089ZM42.938 6.76867C44.5453 6.0786 46.224 5.43165 47.9428 4.84508C47.6482 4.87959 47.4166 4.91984 47.2479 4.95434C45.2974 5.53803 43.3613 6.18786 41.4766 6.88656C41.9514 6.83481 42.4376 6.79455 42.938 6.76867ZM49.959 4.18951C50.0133 4.17226 50.0677 4.155 50.122 4.14063C50.062 4.15788 49.999 4.17226 49.939 4.18951C49.9476 4.18951 49.9533 4.18951 49.9619 4.18951H49.959ZM106.061 4.18951C106.001 4.17226 105.941 4.15788 105.881 4.14063C105.932 4.15788 105.987 4.17226 106.038 4.18951C106.044 4.18951 106.052 4.18951 106.058 4.18951H106.061ZM114.52 6.88656C112.639 6.18786 110.705 5.54091 108.758 4.95722C108.583 4.91984 108.349 4.87959 108.051 4.84508C109.77 5.43165 111.449 6.0786 113.056 6.76867C113.557 6.79455 114.046 6.83481 114.518 6.88656H114.52ZM114.666 7.48463C116.254 8.22071 117.769 9.00567 119.188 9.82802C120.509 9.98616 121.756 10.2076 122.917 10.4893C121.15 9.61812 119.311 8.79002 117.432 8.01944C116.966 7.87855 116.045 7.64277 114.666 7.48463ZM133.639 17.048C134.777 18.0831 135.821 19.1584 136.753 20.2511C137.926 20.8146 139.024 21.4156 140.036 22.0539C138.375 20.5242 136.582 19.0434 134.688 17.6374C134.445 17.4879 134.099 17.2837 133.639 17.0451V17.048ZM147.326 31.0048C147.935 32.382 148.407 33.7967 148.727 35.2142C150.049 36.4736 151.201 37.7963 152.159 39.1563C151.765 37.917 151.253 36.6807 150.638 35.4673C150.355 34.9411 150.046 34.3976 149.694 33.8053C149.254 33.1555 148.501 32.175 147.326 31.0048ZM153.538 42.6441C153.695 43.7194 153.775 44.8034 153.775 45.8731C153.775 46.2785 153.761 46.7069 153.729 47.2216C154.407 48.4867 154.939 49.7576 155.322 51.0199C155.133 48.6823 154.719 46.3389 154.09 44.0415C153.941 43.5901 153.758 43.1243 153.541 42.6441H153.538ZM154.072 60.9685C153.326 62.7483 152.359 64.5109 151.193 66.216C151.376 67.8578 151.336 69.4708 151.078 71.0235C151.633 70.158 152.139 69.2753 152.585 68.3926C153.029 67.3028 153.426 66.1815 153.772 65.0572C153.99 64.1716 154.204 62.7771 154.072 60.9685ZM139.647 83.2436C139.567 83.5542 139.484 83.8532 139.396 84.1321C139.041 85.2506 138.566 86.3174 137.977 87.3151C139.53 86.1793 140.974 84.9918 142.27 83.7756C142.444 83.5973 142.613 83.419 142.782 83.2379L142.865 83.1516C143.417 82.4558 144.409 81.0124 145.121 78.8501C143.465 80.3769 141.626 81.852 139.644 83.2436H139.647ZM130.161 92.7609C129.829 93.2383 129.469 93.6926 129.086 94.1181C131.159 92.8587 133.147 91.5188 135.009 90.1214C135.117 90.0236 135.249 89.9029 135.398 89.7534C133.759 90.8 132.003 91.8092 130.161 92.7609ZM121.673 96.5478C121.147 97.4218 120.541 98.2039 119.86 98.8768C120.217 98.7359 120.586 98.5864 120.972 98.4282C122.888 97.5426 124.779 96.5823 126.592 95.5701C127.11 95.2222 128.059 94.4976 129.023 93.3389C126.715 94.4833 124.247 95.5615 121.673 96.5506V96.5478ZM100.052 104.958C99.9409 105.079 99.8236 105.191 99.7064 105.297C102.429 104.748 105.143 104.084 107.78 103.322C107.811 103.311 107.846 103.296 107.883 103.279C105.343 103.917 102.715 104.481 100.052 104.958ZM89.5224 106.376C89.4109 106.562 89.2936 106.729 89.1735 106.873C92.1849 106.571 95.1907 106.143 98.1163 105.599C98.3279 105.53 98.6225 105.398 98.9628 105.148C95.8684 105.671 92.694 106.085 89.5195 106.376H89.5224ZM88.8046 106.439C85.3041 106.738 81.7664 106.896 78.2803 106.902V107.431C81.572 107.422 84.8894 107.27 88.1439 106.974C88.2269 106.951 88.4328 106.87 88.6959 106.568C88.7302 106.528 88.7674 106.485 88.8046 106.436V106.439ZM78.1173 16.4901C78.04 16.4901 77.9628 16.4901 77.8856 16.4901C77.9228 16.792 77.9628 17.1026 78 17.416C78.0372 17.1026 78.0772 16.792 78.1144 16.4901H78.1173ZM77.7169 106.908C74.2336 106.899 70.6959 106.741 67.1983 106.439C67.2355 106.488 67.2726 106.534 67.3098 106.574C67.5729 106.873 67.7788 106.956 67.8618 106.979C71.1163 107.276 74.4309 107.428 77.7169 107.437V106.908ZM57.0114 105.131C57.3689 105.401 57.6778 105.539 57.8837 105.605C60.8122 106.148 63.8208 106.577 66.8322 106.879C66.7121 106.732 66.592 106.562 66.4805 106.376C63.3003 106.082 60.1172 105.663 57.0114 105.131ZM55.9361 104.944C53.2421 104.458 50.5624 103.874 47.9542 103.207C48.0601 103.256 48.1516 103.296 48.2288 103.328C50.8684 104.09 53.5825 104.754 56.3022 105.303C56.1764 105.191 56.0534 105.073 55.9361 104.944ZM36.0601 98.7934C35.4023 98.1292 34.816 97.3615 34.307 96.5075C31.7331 95.5184 29.2536 94.4315 26.9314 93.2785C27.9209 94.4861 28.8989 95.2309 29.4223 95.5816C30.9152 96.4155 32.4709 97.2177 34.0467 97.971C34.7045 98.2499 35.3823 98.5288 36.0601 98.7962V98.7934ZM26.9228 94.1267C26.5224 93.6839 26.1506 93.2095 25.8074 92.7092C23.9542 91.7488 22.1783 90.7281 20.5195 89.67C20.7112 89.8626 20.877 90.0208 21.0057 90.1358C22.8646 91.5303 24.8522 92.8702 26.9228 94.1296V94.1267ZM18.0057 87.2777C17.428 86.2915 16.959 85.2391 16.6101 84.1379C16.5215 83.8618 16.4385 83.5628 16.3584 83.2523C14.3622 81.8491 12.509 80.3626 10.8446 78.8243C11.5653 81.0009 12.5748 82.4587 13.1325 83.1516L13.2498 83.2753C13.4099 83.4449 13.5701 83.6146 13.7359 83.7842C15.0286 84.9832 16.4642 86.1563 18.0086 87.2806L18.0057 87.2777ZM11.0477 80.8255C10.6301 79.9485 10.2926 79.0227 10.0353 78.0565C8.65681 76.7224 7.40134 75.3279 6.29457 73.9103C6.47475 74.3618 6.64346 74.7125 6.7693 74.9541C8.0162 76.9639 9.45186 78.9335 11.0477 80.8255ZM4.9304 71.0293C4.67302 69.4795 4.63298 67.8635 4.81601 66.2217C3.64919 64.5167 2.68254 62.757 1.93611 60.9771C1.80457 62.8001 2.02478 64.2032 2.245 65.0917C2.58818 66.2073 2.98283 67.3201 3.41753 68.3868C3.86938 69.2782 4.37846 70.1667 4.93327 71.0321L4.9304 71.0293Z" fill="url(#paint0_linear_215_31)"/>
<defs>
<linearGradient id="paint0_linear_215_31" x1="77.9971" y1="0.00878906" x2="77.9971" y2="108" gradientUnits="userSpaceOnUse">
<stop stop-color="#FF7A23"/>
<stop offset="1" stop-color="#D4CDC1"/>
</linearGradient>
</defs>
</svg>
