<svg width="40" height="33" viewBox="0 0 40 33" fill="none" xmlns="http://www.w3.org/2000/svg">
<path d="M26.4243 0H29.0137C30.6678 0.213946 32.3218 0.401743 33.6601 1.58558C34.1101 1.98257 34.6968 1.81379 35.2316 1.6664C36.1388 1.4168 36.9893 1.02456 37.8399 0.63233C38.2499 0.442155 38.681 0.3542 39.0298 0.732171C39.3643 1.0935 39.3125 1.52377 39.1216 1.93978C38.6198 3.02377 37.9436 3.958 37.0647 4.47623C37.887 4.29556 38.7871 3.21395 39.9487 4.1767C40.1136 4.86609 39.8733 5.46989 39.3408 5.84311C37.0765 7.43819 36.6783 9.73455 36.3461 12.3233C35.2929 20.5103 31.0636 26.7005 23.8396 30.7417C21.679 31.9517 19.3511 32.7266 16.8324 32.7647C16.486 32.7694 16.1185 32.7124 15.8357 33H9.48118C8.93455 32.5864 8.27247 32.7195 7.67636 32.6957C5.13407 32.5935 2.9664 31.4548 0.786957 30.3257C0.353424 30.0998 0.0400547 29.7623 0 29.2393C0.435889 28.4192 1.23227 28.6973 1.88493 28.683C4.50969 28.6284 6.96952 27.9604 9.30211 26.7861C9.57543 26.6482 9.88408 26.5483 10.0655 26.2393C9.97362 25.7995 9.55422 25.8209 9.25263 25.7068C7.23576 24.9556 5.68777 23.6315 4.58508 21.8035C3.68267 20.3059 4.14213 19.5452 5.85976 19.5404C5.83385 19.5357 5.8527 19.5214 5.82913 19.5166C3.29391 18.2734 1.74591 16.2694 1.10268 13.5523C0.940107 12.8629 0.737477 12.1165 1.3218 11.5531C1.92734 10.9707 2.57292 11.5008 3.20909 11.6387C0.989586 8.89778 0.26389 5.87876 1.58098 2.50079C2.11112 1.14105 2.88865 1.07448 3.90887 2.14422C7.67636 6.09746 12.2096 8.63391 17.6665 9.37084C18.8186 9.52773 19.0519 9.35182 19.0213 8.22504C18.9506 5.56022 20.0862 3.51109 21.9288 1.67353C23.2223 0.382726 24.841 0.320919 26.4243 0V0Z" fill="#FF7922"/>
</svg>
