<svg width="48" height="46" viewBox="0 0 48 46" fill="none" xmlns="http://www.w3.org/2000/svg">
<path d="M23.999 0C10.7662 0 0 10.3176 0 22.9991C0 35.6806 10.7662 45.9982 23.999 45.9982C37.2319 45.9982 47.9981 35.6806 47.9981 22.9991C47.9981 10.3176 37.2338 0 23.999 0ZM13.1139 34.8332C13.1139 29.0816 17.9974 24.4016 23.999 24.4016C30.0007 24.4016 34.8842 29.0816 34.8842 34.8332C34.8842 38.515 32.8817 41.7557 29.8665 43.6122C31.2935 42.2005 32.1739 40.2815 32.1739 38.1658C32.1739 33.8461 28.5065 30.3315 23.999 30.3315C19.4916 30.3315 15.8242 33.8461 15.8242 38.1658C15.8242 40.2815 16.7046 42.2005 18.1316 43.6122C15.1164 41.7557 13.1139 38.515 13.1139 34.8332ZM35.6514 34.8332C35.6514 28.6753 30.4246 23.6663 23.999 23.6663C17.5735 23.6663 12.3467 28.6753 12.3467 34.8332C12.3467 38.1345 13.8505 41.1031 16.2327 43.149C12.011 40.6473 9.19145 36.1714 9.19145 31.0741C9.19145 23.2509 15.8338 16.8854 23.9971 16.8854C32.1605 16.8854 38.8028 23.2509 38.8028 31.0741C38.8028 36.1714 35.9832 40.6454 31.7615 43.149C34.1457 41.1031 35.6495 38.1327 35.6495 34.8313L35.6514 34.8332ZM16.5914 38.1658C16.5914 34.2523 19.9135 31.0668 23.999 31.0668C28.0846 31.0668 31.4067 34.2505 31.4067 38.1658C31.4067 42.081 28.0846 45.2647 23.999 45.2647C19.9135 45.2647 16.5914 42.081 16.5914 38.1658ZM39.5719 31.0741C39.5719 22.8447 32.5863 16.1501 23.999 16.1501C15.4118 16.1501 8.42613 22.8465 8.42613 31.076C8.42613 35.585 10.5264 39.6289 13.8332 42.3678C8.73495 39.1767 5.3572 33.6586 5.3572 27.3996C5.3572 17.5489 13.72 9.53455 23.999 9.53455C34.278 9.53455 42.6409 17.5489 42.6409 27.3996C42.6409 33.6586 39.2631 39.1749 34.1649 42.3678C37.4716 39.6289 39.5719 35.585 39.5719 31.076V31.0741ZM35.7108 42.2207C40.3852 38.8201 43.4081 33.4417 43.4081 27.3978C43.4081 17.1409 34.7019 8.79744 23.999 8.79744C13.2961 8.79744 4.58997 17.1427 4.58997 27.3996C4.58997 33.4435 7.61478 38.822 12.2872 42.2207C5.40132 38.3532 0.767233 31.1863 0.767233 22.9991C0.767233 10.7238 11.1901 0.735265 23.999 0.735265C36.808 0.735265 47.2309 10.7238 47.2309 22.9991C47.2309 31.1844 42.5968 38.3532 35.7108 42.2207Z" fill="#F4781E"/>
</svg>
