<svg width="136" height="136" viewBox="0 0 136 136" fill="none" xmlns="http://www.w3.org/2000/svg">
<path fill-rule="evenodd" clip-rule="evenodd" d="M36.8949 13.1115L65.9801 60.2831L43.9975 8.42432L44.8145 8.0792L65.5139 56.9179L49.017 4.2771L49.8606 4.01458L67.0038 58.711L57.2962 4.22393L58.1663 4.06759L66.1836 49.061L62.7561 21.3175L63.632 21.2084L67.2898 50.7993L64.2009 1.77271L65.0857 1.71667L68.6554 58.4223L72.3329 0L73.2147 0.0560447L69.4447 59.9945L81.6223 6.45678L82.4836 6.65146L70.5973 58.9146L88.7099 9.79586L89.5387 10.0997L70.2996 62.28L102.617 15.073L103.348 15.5715L75.581 56.1311L108.577 15.0464L109.268 15.598L75.9886 57.039L109.731 21.2408L110.377 21.8484L72.7733 61.7407L112.614 31.093L113.154 31.795L77.9433 58.8782L120.558 31.0754L121.042 31.8158L72.4672 63.506L124.882 43.0925L125.204 43.9185L79.9965 61.5218L116.996 50.1689L117.255 51.0155L75.6252 63.7893L130.059 54.2042L130.213 55.0744L76.8542 64.471L130.106 60.9058L130.165 61.7878L75.8418 65.4253L130.158 68.4807L130.108 69.3657L77.2465 66.3916L128.225 74.5599L128.086 75.433L77.934 67.398L127.134 80.0788L126.913 80.9342L75.0925 67.5806L125.211 87.7865L124.88 88.6065L76.1583 68.9673L125.252 95.1608L124.836 95.9395L76.7562 70.2877L122.892 100.789L122.403 101.526L73.0203 68.8813L110.353 103.246L109.754 103.898L73.7916 70.7962L107.843 110.638L107.171 111.213L73.7938 72.157L102.217 113.505L101.488 114.007L72.0805 71.2268L96.0253 118.346L95.2349 118.747L74.0494 77.0541L89.5341 113.582L88.7171 113.927L72.3148 75.229L86.4337 118.408L85.5931 118.682L70.0936 71.2836L79.3247 125.561L78.4546 125.708L69.258 71.6482L70.6187 124.21L69.7339 124.233L68.3755 71.713L61.5643 130.213L60.6853 130.109L67.3608 72.757L55.3317 122.909L54.4734 122.702L67.1626 69.7976L44.8082 118.729L44.003 118.363L66.1324 69.9216L39.3745 108.916L38.646 108.414L58.6175 79.3093L28.3851 118.815L27.6831 118.278L65.2372 69.2038L24.3751 106.727L23.7763 106.075L63.0337 70.0286L24.3322 97.7094L23.816 96.9896L61.8305 69.7994L36.7347 83.8751L36.3012 83.1052L61.9535 68.7164L9.53509 90.4059L9.19885 89.5859L63.7439 67.0181L7.20256 79.6779L7.0079 78.8166L62.5402 66.3805L0.0678374 71.2033L0 70.3214L63.9297 65.3859L9.31789 59.3216L9.41817 58.4426L62.6676 64.3539L17.4584 52.5225L17.6825 51.6642L61.3181 63.0849L12.0361 43.9182L12.3546 43.0922L63.9022 63.1415L15.0799 33.9835L15.5341 33.2254L64.2829 62.3393L25.203 29.2375L25.7752 28.562L59.9594 57.5194L23.7637 21.8603L24.386 21.229L64.8116 61.0564L29.3768 13.607L30.0847 13.079L63.0625 57.2334L36.1428 13.5746L36.8949 13.1115Z" fill="url(#paint0_linear_334_113164)"/>
<circle cx="36.1695" cy="13.0215" r="1.44681" fill="#FF7922"/>
<circle cx="112.368" cy="31.3476" r="3.37589" fill="#FF7922"/>
<circle cx="129.73" cy="61.2481" r="1.44681" fill="#F87E2E"/>
<circle cx="28.9366" cy="116.709" r="2.89362" fill="#DAB69F"/>
<defs>
<linearGradient id="paint0_linear_334_113164" x1="64.6241" y1="49.6737" x2="65.1064" y2="130.213" gradientUnits="userSpaceOnUse">
<stop stop-color="#FF6F11"/>
<stop offset="1" stop-color="#CDCCCB"/>
</linearGradient>
</defs>
</svg>
