<svg width="166" height="113" viewBox="0 0 166 113" fill="none" xmlns="http://www.w3.org/2000/svg">
<g clip-path="url(#clip0_334_113158)">
<path d="M166 56.5L109.222 0L103.977 5.21907L98.7327 0L93.488 5.21907L88.2433 0L82.9986 5.21907L77.7567 0L72.512 5.21907L67.2673 0L62.0225 5.21907L56.7778 0L0 56.5L56.7778 113L62.0225 107.781L67.2673 113L72.512 107.781L77.7567 113L83.0015 107.781L88.2462 113L93.4909 107.781L98.7356 113L103.98 107.781L109.225 113L166.003 56.5H166ZM98.7327 1.22462L103.362 5.83138L98.7327 10.4381L94.1033 5.83138L98.7327 1.22462ZM22.2096 56.5L67.2673 11.6628L71.8967 16.2695L31.4655 56.5L71.8938 96.7334L67.2644 101.34L22.2096 56.5ZM66.6519 101.95L62.0225 106.556L11.7201 56.5L62.0225 6.44369L66.6519 11.0505L20.976 56.5L66.649 101.95H66.6519ZM92.8727 16.2695L88.2433 20.8763L83.6139 16.2695L88.2433 11.6628L92.8727 16.2695ZM88.8586 11.0505L93.488 6.44369L98.1174 11.0505L93.488 15.6572L88.8586 11.0505ZM43.1856 56.5L77.7567 22.098L82.3861 26.7048L52.4444 56.5L82.3861 86.2952L77.7567 90.902L43.1856 56.5ZM77.1385 91.5143L72.5091 96.121L32.6961 56.5L72.512 16.8818L77.1414 21.4886L41.955 56.5029L77.1414 91.5172L77.1385 91.5143ZM78.3691 21.4886L82.9986 16.8818L87.628 21.4886L82.9986 26.0954L78.3691 21.4886ZM82.9986 27.32L112.325 56.5029L82.9986 85.6858L53.6722 56.5029L82.9986 27.32ZM82.9986 86.9104L87.628 91.5172L82.9986 96.1239L78.3691 91.5172L82.9986 86.9104ZM83.6139 86.2981L113.556 56.5029L83.6139 26.7077L88.2433 22.1009L122.814 56.5029L88.2433 90.9049L83.6139 86.2981ZM124.042 56.5029L88.8557 21.4886L93.4851 16.8818L133.298 56.5L93.4851 96.1182L88.8557 91.5114L124.042 56.4971V56.5029ZM82.9986 15.6572L78.3691 11.0505L82.9986 6.44369L87.628 11.0505L82.9986 15.6572ZM82.3832 16.2695L77.7538 20.8763L73.1244 16.2695L77.7538 11.6628L82.3832 16.2695ZM72.5091 15.6572L67.8797 11.0505L72.5091 6.44369L77.1385 11.0505L72.5091 15.6572ZM72.5091 97.3457L77.1385 101.952L72.5091 106.559L67.8797 101.952L72.5091 97.3457ZM73.1244 96.7334L77.7538 92.1266L82.3832 96.7334L77.7538 101.34L73.1244 96.7334ZM82.9986 97.3457L87.628 101.952L82.9986 106.559L78.3691 101.952L82.9986 97.3457ZM83.6139 96.7334L88.2433 92.1266L92.8727 96.7334L88.2433 101.34L83.6139 96.7334ZM93.488 97.3457L98.1174 101.952L93.488 106.559L88.8586 101.952L93.488 97.3457ZM94.1033 96.7334L134.535 56.5L94.1033 16.2695L98.7327 11.6628L143.79 56.5L98.7327 101.337L94.1033 96.7305V96.7334ZM145.021 56.5L99.3481 11.0505L103.977 6.44369L154.28 56.5L103.977 106.556L99.3481 101.95L145.021 56.5ZM88.2433 1.22462L92.8727 5.83138L88.2433 10.4381L83.6139 5.83138L88.2433 1.22462ZM77.7538 1.22462L82.3832 5.83138L77.7538 10.4381L73.1244 5.83138L77.7538 1.22462ZM67.2644 1.22462L71.8938 5.83138L67.2644 10.4381L62.6349 5.83138L67.2644 1.22462ZM56.7749 111.775L1.23064 56.5L56.7778 1.22462L61.4072 5.83138L10.7971 56.1938L10.4895 56.5L61.4072 107.169L56.7778 111.775H56.7749ZM67.2644 111.775L62.6349 107.169L67.2644 102.562L71.8938 107.169L67.2644 111.775ZM77.7538 111.775L73.1244 107.169L77.7538 102.562L82.3832 107.169L77.7538 111.775ZM88.2433 111.775L83.6139 107.169L88.2433 102.562L92.8727 107.169L88.2433 111.775ZM98.7327 111.775L94.1033 107.169L98.7327 102.562L103.362 107.169L98.7327 111.775ZM155.511 56.5L104.593 5.83138L109.222 1.22462L164.769 56.5L109.222 111.775L104.593 107.169L155.511 56.5Z" fill="url(#paint0_linear_334_113158)"/>
<ellipse cx="44.4167" cy="12.107" rx="4.03784" ry="4.03571" fill="#FF7922"/>
<ellipse cx="141.773" cy="30.4921" rx="6.28108" ry="6.27778" fill="#F8D4A0"/>
</g>
<defs>
<linearGradient id="paint0_linear_334_113158" x1="83.0015" y1="0" x2="83.0015" y2="113" gradientUnits="userSpaceOnUse">
<stop stop-color="#FF7922"/>
<stop offset="1" stop-color="#CCCCCC"/>
</linearGradient>
<clipPath id="clip0_334_113158">
<rect width="166" height="113" fill="white"/>
</clipPath>
</defs>
</svg>
