<svg width="51" height="44" viewBox="0 0 51 44" fill="none" xmlns="http://www.w3.org/2000/svg">
<path d="M50.9697 43.462L50.9773 43.4357L50.9584 43.4131L50.9451 43.3642L50.9224 43.3679L25.8369 0.193758C25.7669 0.0752458 25.6382 0 25.4962 0C25.3542 0 25.2255 0.0733647 25.1574 0.191877L0.0567887 43.3962C0.0473239 43.4112 0.041645 43.4263 0.0359661 43.4375C0.0321802 43.4469 0.0283943 43.4563 0.0208225 43.4827L0.0151436 43.509C0.0132507 43.5184 0.0113577 43.5278 0.00946478 43.5485L0 43.5542L0.0246084 43.7931L0.0605746 43.7874L0.0813971 43.8232V43.8269L0.107898 43.8683L0.121149 43.8646L0.200653 43.936L0.283943 43.9944L0.30098 43.9699L0.401306 44L0.410771 43.9755H50.6082C50.6366 43.9755 50.6649 43.9699 50.7104 43.9567L50.7482 43.9417C50.7577 43.9379 50.7691 43.9323 50.8126 43.9059L50.8902 43.8401C50.8902 43.8401 50.9053 43.8232 50.9281 43.7893L50.9489 43.7517C50.9584 43.7329 50.9659 43.7141 50.9754 43.6783L50.983 43.6257L51 43.6162L50.9697 43.4658V43.462ZM46.968 38.1233L46.4948 38.1741L41.5239 32.3444L43.3165 31.8365L46.968 38.1214V38.1233ZM24.6292 30.9674L18.4468 34.0751L14.5171 32.9614L20.0029 28.6404L24.6311 30.9674H24.6292ZM20.6786 28.1081L25.4981 24.3119L30.3176 28.1081L25.4981 30.531L20.6786 28.1081ZM25.4981 31.4057L31.4382 34.3911L25.4981 36.0729L19.558 34.3911L25.4981 31.4057ZM26.367 30.9693L30.9952 28.6423L36.481 32.9633L32.5513 34.077L26.3689 30.9693H26.367ZM31.7657 28.2567L35.4342 26.4113L40.1382 31.9287L37.4067 32.7018L31.7638 28.2567H31.7657ZM31.088 27.7224L26.1285 23.8172L30.3706 20.4744L34.9118 25.7999L31.0861 27.7224H31.088ZM25.4981 23.3187L21.1311 19.8781L25.4981 14.7576L29.8652 19.8781L25.4981 23.3187ZM24.8678 23.8153L19.9082 27.7206L16.0825 25.798L20.6237 20.4725L24.8659 23.8153H24.8678ZM19.2324 28.2548L13.5895 32.7L10.858 31.9268L15.562 26.4094L19.2324 28.2548ZM12.8323 33.2963L6.37926 38.3791L5.44225 38.2776L10.3015 32.5796L12.8323 33.2963ZM13.7618 33.5596L17.4171 34.5943L9.26412 38.6933L7.48853 38.4995L13.7599 33.5578L13.7618 33.5596ZM18.5301 34.9103L24.0708 36.4792L14.3088 39.2426L10.6952 38.8494L18.532 34.9103H18.5301ZM25.5019 36.8836L34.6278 39.4683L25.5076 40.4616L16.3778 39.4683L25.5038 36.8836H25.5019ZM26.933 36.4792L32.4736 34.9103L40.3105 38.8494L36.6968 39.2426L26.9349 36.4792H26.933ZM33.5848 34.5962L37.2401 33.5615L43.5115 38.5033L41.7359 38.6971L33.5829 34.598L33.5848 34.5962ZM38.1695 33.2982L40.7004 32.5814L45.5596 38.2794L44.6226 38.381L38.1695 33.2982ZM42.9171 31.1424L40.973 31.6935L36.1592 26.0482L39.099 24.5696L42.9171 31.1405V31.1424ZM38.7071 23.8943L35.6387 25.4369L30.9934 19.9891L34.7282 17.0469L38.7071 23.8943ZM34.3325 16.3641L30.486 19.3946L26.0187 14.1556L30.2002 9.25148L34.3325 16.3641ZM25.4962 1.16819L29.7743 8.53476L25.4943 13.5537L21.2162 8.53476L25.4962 1.16819ZM20.7998 9.25148L24.9813 14.1556L20.514 19.3946L16.6675 16.3641L20.7998 9.25148ZM16.2699 17.0469L20.0047 19.9891L15.3594 25.4369L12.291 23.8943L16.2699 17.0469ZM11.8991 24.5715L14.8389 26.0501L10.0251 31.6954L8.08103 31.1443L11.8991 24.5715ZM7.67593 31.8403L9.46856 32.3482L4.49766 38.1779L4.02442 38.1271L7.67593 31.8422V31.8403ZM3.59472 38.8626L3.88434 38.8946L2.91704 40.0289L3.59472 38.8626ZM4.82514 38.9962L5.49903 39.0695L3.25588 40.8359L4.82514 38.9962ZM6.60831 39.1899L7.97502 39.3385L3.67423 41.5L6.60641 39.1899H6.60831ZM9.4042 39.4947L12.3004 39.8088L4.23265 42.0925L9.4042 39.4928V39.4947ZM14.3675 40.0345L21.8901 40.8528L4.97279 42.6945L14.3675 40.0345ZM7.57939 43.1949L25.4924 41.2441L43.4055 43.1949H7.58318H7.57939ZM29.0966 40.8528L36.6192 40.0345L46.014 42.6945L29.0966 40.8528ZM38.6882 39.8088L41.5844 39.4947L46.756 42.0944L38.6882 39.8107V39.8088ZM43.0136 39.3385L44.3803 39.1899L47.3125 41.5L43.0136 39.3385ZM45.4896 39.0695L46.1635 38.9962L47.7328 40.8359L45.4896 39.0695ZM47.1043 38.8946L47.3939 38.8626L48.0697 40.027L47.1043 38.8946Z" fill="#F4781E"/>
</svg>
