<svg width="25" height="19" viewBox="0 0 25 19" fill="none" xmlns="http://www.w3.org/2000/svg">
<path d="M21.3103 1.55621C19.7569 0.829667 18.0957 0.30093 16.3595 0C16.1457 0.385303 15.8973 0.904665 15.7248 1.31715C13.8789 1.03966 12.0499 1.03966 10.2378 1.31715C10.0662 0.904665 9.81122 0.38624 9.5956 0C7.85752 0.30093 6.19443 0.830604 4.6401 1.55996C1.50705 6.29516 0.657697 10.9122 1.08237 15.4646C3.16076 17.0171 5.17446 17.9592 7.15535 18.5761C7.64471 17.903 8.08064 17.1877 8.45563 16.434C7.74033 16.1621 7.05504 15.8265 6.40724 15.4374C6.5788 15.3099 6.74661 15.1768 6.90973 15.0399C10.8584 16.8868 15.1492 16.8868 19.051 15.0399C19.215 15.1768 19.3829 15.3099 19.5535 15.4374C18.9038 15.8284 18.2166 16.164 17.5013 16.4358C17.8773 17.1877 18.3113 17.9049 18.8016 18.578C20.7834 17.9611 22.8 17.018 24.8783 15.4646C25.3771 10.1876 24.0271 5.61267 21.3103 1.55621ZM8.9928 12.6644C7.80783 12.6644 6.83567 11.5581 6.83567 10.2101C6.83567 8.86197 7.78721 7.75387 8.9928 7.75387C10.1984 7.75387 11.1715 8.86009 11.1499 10.2101C11.1518 11.5581 10.1984 12.6644 8.9928 12.6644ZM16.966 12.6644C15.7811 12.6644 14.8089 11.5581 14.8089 10.2101C14.8089 8.86197 15.7604 7.75387 16.966 7.75387C18.1716 7.75387 19.1447 8.86009 19.1232 10.2101C19.1232 11.5581 18.1716 12.6644 16.966 12.6644Z" fill="#CECECE"/>
</svg>
