<svg width="69" height="69" viewBox="0 0 69 69" fill="none" xmlns="http://www.w3.org/2000/svg">
<g filter="url(#filter0_bd_140_217)">
<circle cx="34.5" cy="33.5" r="24.5" fill="white" fill-opacity="0.1" shape-rendering="crispEdges"/>
<circle cx="34.5" cy="33.5" r="24" stroke="white" stroke-opacity="0.1" shape-rendering="crispEdges"/>
</g>
<path d="M42.9259 37.3098C41.8925 36.7005 40.722 36.5223 39.5698 36.4755C38.6096 36.4473 37.1648 35.8005 37.1648 33.9912C37.1648 32.6506 38.2255 31.5631 39.5881 31.5069C40.7403 31.46 41.9108 31.2819 42.9442 30.6726C45.8613 28.9476 46.8672 25.1134 45.1846 22.1229C43.4746 19.1324 39.7344 18.1105 36.799 19.8448C34.906 20.9604 33.7355 23.0322 33.7447 25.2728C33.7447 26.4915 34.1653 27.5977 34.7049 28.6476C35.1621 29.5195 35.3816 31.1413 33.8361 32.06C32.6839 32.735 31.239 32.3131 30.5258 31.1319C29.9222 30.1288 29.1906 29.2007 28.1573 28.5914C25.231 26.8571 21.4909 27.8883 19.8174 30.8788C18.1348 33.8787 19.1315 37.7035 22.0578 39.4285C23.9508 40.5441 26.2735 40.5441 28.1664 39.4285C29.1906 38.8191 29.9222 37.891 30.5258 36.888C31.0196 36.0724 32.2724 35.0224 33.8361 35.9599C34.9975 36.6348 35.3541 38.1348 34.7049 39.3722C34.1745 40.3941 33.7447 41.5284 33.7447 42.7377C33.7447 46.197 36.4789 48.9906 39.8533 49C43.2277 49 45.9528 46.197 45.9619 42.7377C45.971 40.4972 44.8188 38.4254 42.9259 37.3098Z" fill="white" fill-opacity="0.5"/>
<defs>
<filter id="filter0_bd_140_217" x="0" y="0" width="69" height="69" filterUnits="userSpaceOnUse" color-interpolation-filters="sRGB">
<feFlood flood-opacity="0" result="BackgroundImageFix"/>
<feGaussianBlur in="BackgroundImage" stdDeviation="3"/>
<feComposite in2="SourceAlpha" operator="in" result="effect1_backgroundBlur_140_217"/>
<feColorMatrix in="SourceAlpha" type="matrix" values="0 0 0 0 0 0 0 0 0 0 0 0 0 0 0 0 0 0 127 0" result="hardAlpha"/>
<feOffset dy="1"/>
<feGaussianBlur stdDeviation="5"/>
<feComposite in2="hardAlpha" operator="out"/>
<feColorMatrix type="matrix" values="0 0 0 0 0.891667 0 0 0 0 0.40283 0 0 0 0 0.0854514 0 0 0 1 0"/>
<feBlend mode="normal" in2="effect1_backgroundBlur_140_217" result="effect2_dropShadow_140_217"/>
<feBlend mode="normal" in="SourceGraphic" in2="effect2_dropShadow_140_217" result="shape"/>
</filter>
</defs>
</svg>
